%TF.GenerationSoftware,KiCad,Pcbnew,(5.1.12)-1*%
%TF.CreationDate,2023-02-10T19:32:18+01:00*%
%TF.ProjectId,bigrom,62696772-6f6d-42e6-9b69-6361645f7063,rev?*%
%TF.SameCoordinates,Original*%
%TF.FileFunction,Legend,Top*%
%TF.FilePolarity,Positive*%
%FSLAX46Y46*%
G04 Gerber Fmt 4.6, Leading zero omitted, Abs format (unit mm)*
G04 Created by KiCad (PCBNEW (5.1.12)-1) date 2023-02-10 19:32:18*
%MOMM*%
%LPD*%
G01*
G04 APERTURE LIST*
%ADD10C,0.120000*%
%ADD11C,0.200000*%
%ADD12C,0.150000*%
G04 APERTURE END LIST*
D10*
%TO.C,U2*%
X148740000Y-112685000D02*
X146925000Y-112685000D01*
X148740000Y-112440000D02*
X148740000Y-112685000D01*
%TO.C,U1*%
X148740000Y-97975000D02*
X146925000Y-97975000D01*
X148740000Y-97740000D02*
X148740000Y-97975000D01*
D11*
%TO.C,J1*%
X143670000Y-96130000D02*
X143670000Y-97500000D01*
%TO.C,U2*%
D12*
X151838095Y-120952380D02*
X151838095Y-121761904D01*
X151885714Y-121857142D01*
X151933333Y-121904761D01*
X152028571Y-121952380D01*
X152219047Y-121952380D01*
X152314285Y-121904761D01*
X152361904Y-121857142D01*
X152409523Y-121761904D01*
X152409523Y-120952380D01*
X152838095Y-121047619D02*
X152885714Y-121000000D01*
X152980952Y-120952380D01*
X153219047Y-120952380D01*
X153314285Y-121000000D01*
X153361904Y-121047619D01*
X153409523Y-121142857D01*
X153409523Y-121238095D01*
X153361904Y-121380952D01*
X152790476Y-121952380D01*
X153409523Y-121952380D01*
%TO.C,U1*%
X151838095Y-103702380D02*
X151838095Y-104511904D01*
X151885714Y-104607142D01*
X151933333Y-104654761D01*
X152028571Y-104702380D01*
X152219047Y-104702380D01*
X152314285Y-104654761D01*
X152361904Y-104607142D01*
X152409523Y-104511904D01*
X152409523Y-103702380D01*
X153409523Y-104702380D02*
X152838095Y-104702380D01*
X153123809Y-104702380D02*
X153123809Y-103702380D01*
X153028571Y-103845238D01*
X152933333Y-103940476D01*
X152838095Y-103988095D01*
%TD*%
M02*
