%TF.GenerationSoftware,KiCad,Pcbnew,(5.1.12)-1*%
%TF.CreationDate,2023-02-10T19:32:18+01:00*%
%TF.ProjectId,bigrom,62696772-6f6d-42e6-9b69-6361645f7063,rev?*%
%TF.SameCoordinates,Original*%
%TF.FileFunction,Copper,L2,Bot*%
%TF.FilePolarity,Positive*%
%FSLAX46Y46*%
G04 Gerber Fmt 4.6, Leading zero omitted, Abs format (unit mm)*
G04 Created by KiCad (PCBNEW (5.1.12)-1) date 2023-02-10 19:32:18*
%MOMM*%
%LPD*%
G01*
G04 APERTURE LIST*
%TA.AperFunction,ComponentPad*%
%ADD10R,1.350000X1.350000*%
%TD*%
%TA.AperFunction,ComponentPad*%
%ADD11C,1.350000*%
%TD*%
%TA.AperFunction,ViaPad*%
%ADD12C,0.800000*%
%TD*%
%TA.AperFunction,Conductor*%
%ADD13C,0.250000*%
%TD*%
%TA.AperFunction,Conductor*%
%ADD14C,0.500000*%
%TD*%
%TA.AperFunction,Conductor*%
%ADD15C,0.254000*%
%TD*%
%TA.AperFunction,Conductor*%
%ADD16C,0.100000*%
%TD*%
G04 APERTURE END LIST*
D10*
%TO.P,J1,1*%
%TO.N,Net-(J1-Pad1)*%
X145000000Y-97500000D03*
D11*
%TO.P,J1,2*%
%TO.N,A12*%
X145000000Y-100040000D03*
%TO.P,J1,3*%
%TO.N,A7*%
X145000000Y-102580000D03*
%TO.P,J1,4*%
%TO.N,A6*%
X145000000Y-105120000D03*
%TO.P,J1,5*%
%TO.N,A5*%
X145000000Y-107660000D03*
%TO.P,J1,6*%
%TO.N,A4*%
X145000000Y-110200000D03*
%TO.P,J1,7*%
%TO.N,A3*%
X145000000Y-112740000D03*
%TO.P,J1,8*%
%TO.N,A2*%
X145000000Y-115280000D03*
%TO.P,J1,9*%
%TO.N,A1*%
X145000000Y-117820000D03*
%TO.P,J1,10*%
%TO.N,A0*%
X145000000Y-120360000D03*
%TO.P,J1,11*%
%TO.N,DQ0*%
X145000000Y-122900000D03*
%TO.P,J1,12*%
%TO.N,DQ1*%
X145000000Y-125440000D03*
%TO.P,J1,13*%
%TO.N,DQ2*%
X145000000Y-127980000D03*
%TO.P,J1,14*%
%TO.N,GND*%
X145000000Y-130520000D03*
%TO.P,J1,15*%
%TO.N,DQ3*%
X160240000Y-130520000D03*
%TO.P,J1,16*%
%TO.N,DQ4*%
X160240000Y-127980000D03*
%TO.P,J1,17*%
%TO.N,DQ5*%
X160240000Y-125440000D03*
%TO.P,J1,18*%
%TO.N,DQ6*%
X160240000Y-122900000D03*
%TO.P,J1,19*%
%TO.N,DQ7*%
X160240000Y-120360000D03*
%TO.P,J1,20*%
%TO.N,~CE~*%
X160240000Y-117820000D03*
%TO.P,J1,21*%
%TO.N,A10*%
X160240000Y-115280000D03*
%TO.P,J1,22*%
%TO.N,~OE~*%
X160240000Y-112740000D03*
%TO.P,J1,23*%
%TO.N,A11*%
X160240000Y-110200000D03*
%TO.P,J1,24*%
%TO.N,A9*%
X160240000Y-107660000D03*
%TO.P,J1,25*%
%TO.N,A8*%
X160240000Y-105120000D03*
%TO.P,J1,26*%
%TO.N,A13*%
X160240000Y-102580000D03*
%TO.P,J1,27*%
%TO.N,Net-(J1-Pad27)*%
X160240000Y-100040000D03*
%TO.P,J1,28*%
%TO.N,+5V*%
X160240000Y-97500000D03*
%TD*%
D12*
%TO.N,A7*%
X152560000Y-115780000D03*
%TO.N,A6*%
X151580000Y-116750000D03*
%TO.N,A5*%
X150480000Y-118310000D03*
%TO.N,A4*%
X150380000Y-119590000D03*
%TO.N,A3*%
X150410000Y-120880000D03*
%TO.N,A0*%
X146358952Y-111438952D03*
%TO.N,GND*%
X146300000Y-113900000D03*
X152400000Y-107800000D03*
X150300000Y-110000000D03*
X151100000Y-98630000D03*
X150750000Y-101430000D03*
X154480000Y-98350000D03*
X152274017Y-110974029D03*
%TO.N,~CE~*%
X158750000Y-110930000D03*
%TO.N,A11*%
X159140000Y-114030000D03*
X154770000Y-102840000D03*
%TO.N,A9*%
X155410000Y-118010000D03*
%TO.N,A8*%
X154600000Y-117070000D03*
X154030000Y-103530000D03*
%TO.N,A13*%
X155190000Y-108200000D03*
X154555010Y-116020000D03*
%TO.N,Net-(J1-Pad27)*%
X155030000Y-96460000D03*
%TO.N,+5V*%
X155000000Y-113225000D03*
%TO.N,A14*%
X155150000Y-99850000D03*
X153200000Y-111775000D03*
%TO.N,~WE~*%
X154730000Y-114510000D03*
X152360000Y-98590000D03*
%TD*%
D13*
%TO.N,A7*%
X152560000Y-114460000D02*
X152560000Y-115780000D01*
X152560000Y-113240000D02*
X152560000Y-114460000D01*
X146975000Y-107655000D02*
X152560000Y-113240000D01*
X146975000Y-105465000D02*
X146975000Y-107655000D01*
X145000000Y-103490000D02*
X146975000Y-105465000D01*
X145000000Y-102580000D02*
X145000000Y-103490000D01*
%TO.N,A6*%
X146460000Y-108100000D02*
X151580000Y-113220000D01*
X146460000Y-107280000D02*
X146460000Y-108100000D01*
X151580000Y-113220000D02*
X151580000Y-116750000D01*
X145000000Y-105820000D02*
X146460000Y-107280000D01*
X145000000Y-105120000D02*
X145000000Y-105820000D01*
%TO.N,A5*%
X150480000Y-113120000D02*
X150480000Y-118310000D01*
X145020000Y-107660000D02*
X150480000Y-113120000D01*
X145000000Y-107660000D02*
X145020000Y-107660000D01*
%TO.N,A4*%
X149400000Y-118610000D02*
X150380000Y-119590000D01*
X149400000Y-113130000D02*
X149400000Y-118610000D01*
X146470000Y-110200000D02*
X149400000Y-113130000D01*
X145000000Y-110200000D02*
X146470000Y-110200000D01*
%TO.N,A3*%
X145000000Y-112740000D02*
X148010000Y-112740000D01*
X148010000Y-112740000D02*
X148610000Y-113340000D01*
X148610000Y-119080000D02*
X150410000Y-120880000D01*
X148610000Y-113340000D02*
X148610000Y-119080000D01*
%TO.N,A0*%
X143870000Y-119230000D02*
X143870000Y-112389998D01*
X143870000Y-112389998D02*
X144821046Y-111438952D01*
X144821046Y-111438952D02*
X146358952Y-111438952D01*
X145000000Y-120360000D02*
X143870000Y-119230000D01*
D14*
%TO.N,GND*%
X153600000Y-117000000D02*
X153600000Y-115300000D01*
X152400000Y-110848046D02*
X152274017Y-110974029D01*
X152400000Y-107800000D02*
X152400000Y-110848046D01*
D13*
%TO.N,~CE~*%
X158180000Y-115760000D02*
X160240000Y-117820000D01*
X158180000Y-111500000D02*
X158180000Y-115760000D01*
X158750000Y-110930000D02*
X158180000Y-111500000D01*
%TO.N,A11*%
X161370000Y-113250000D02*
X161370000Y-111330000D01*
X160590000Y-114030000D02*
X161370000Y-113250000D01*
X161370000Y-111330000D02*
X160240000Y-110200000D01*
X159140000Y-114030000D02*
X160590000Y-114030000D01*
X158370000Y-103870000D02*
X157340000Y-102840000D01*
X157340000Y-102840000D02*
X154770000Y-102840000D01*
X161360000Y-109080000D02*
X161360000Y-104480000D01*
X160240000Y-110200000D02*
X161360000Y-109080000D01*
X161360000Y-104480000D02*
X160750000Y-103870000D01*
X160750000Y-103870000D02*
X158370000Y-103870000D01*
%TO.N,A9*%
X157610000Y-115810000D02*
X155410000Y-118010000D01*
X158330000Y-107660000D02*
X157610000Y-108380000D01*
X157610000Y-108380000D02*
X157610000Y-115810000D01*
X160240000Y-107660000D02*
X158330000Y-107660000D01*
%TO.N,A8*%
X155620000Y-105120000D02*
X154030000Y-103530000D01*
X154600000Y-117070000D02*
X155340000Y-117070000D01*
X160240000Y-105120000D02*
X155620000Y-105120000D01*
X155340000Y-117070000D02*
X156940000Y-115470000D01*
X156940000Y-115470000D02*
X156940000Y-106440000D01*
X154429999Y-103929999D02*
X154030000Y-103530000D01*
X156940000Y-106440000D02*
X154429999Y-103929999D01*
%TO.N,A13*%
X155190000Y-108200000D02*
X156360000Y-109370000D01*
X156360000Y-109370000D02*
X156360000Y-114215010D01*
X156360000Y-114215010D02*
X154555010Y-116020000D01*
%TO.N,Net-(J1-Pad27)*%
X161430000Y-98850000D02*
X160240000Y-100040000D01*
X161430000Y-96960000D02*
X161430000Y-98850000D01*
X160930000Y-96460000D02*
X161430000Y-96960000D01*
X155030000Y-96460000D02*
X160930000Y-96460000D01*
D14*
%TO.N,+5V*%
X158100000Y-98100000D02*
X158700000Y-97500000D01*
X158100000Y-99500000D02*
X158100000Y-98100000D01*
X156400000Y-101200000D02*
X158100000Y-99500000D01*
X158700000Y-97500000D02*
X160240000Y-97500000D01*
X154400000Y-101200000D02*
X156400000Y-101200000D01*
X153179999Y-102420001D02*
X154400000Y-101200000D01*
X153179999Y-103938001D02*
X153179999Y-102420001D01*
X154339999Y-105098001D02*
X153179999Y-103938001D01*
X154339999Y-112564999D02*
X154339999Y-105098001D01*
X155000000Y-113225000D02*
X154339999Y-112564999D01*
D13*
%TO.N,A14*%
X152200000Y-101300000D02*
X152200000Y-106310000D01*
X152200000Y-106310000D02*
X153200000Y-107310000D01*
X153650000Y-99850000D02*
X152200000Y-101300000D01*
X155150000Y-99850000D02*
X153650000Y-99850000D01*
X153200000Y-107310000D02*
X153200000Y-111775000D01*
%TO.N,~WE~*%
X154730000Y-114510000D02*
X151540000Y-111320000D01*
X151540000Y-111320000D02*
X151540000Y-101070000D01*
X151540000Y-99410000D02*
X152360000Y-98590000D01*
X151540000Y-101070000D02*
X151540000Y-99410000D01*
%TD*%
D15*
%TO.N,GND*%
X147850000Y-113654802D02*
X147850001Y-119042668D01*
X147846324Y-119080000D01*
X147860998Y-119228985D01*
X147904454Y-119372246D01*
X147975026Y-119504276D01*
X148045378Y-119589999D01*
X148070000Y-119620001D01*
X148098998Y-119643799D01*
X149375000Y-120919802D01*
X149375000Y-120981939D01*
X149414774Y-121181898D01*
X149492795Y-121370256D01*
X149606063Y-121539774D01*
X149750226Y-121683937D01*
X149919744Y-121797205D01*
X150108102Y-121875226D01*
X150308061Y-121915000D01*
X150511939Y-121915000D01*
X150711898Y-121875226D01*
X150900256Y-121797205D01*
X151069774Y-121683937D01*
X151213937Y-121539774D01*
X151327205Y-121370256D01*
X151405226Y-121181898D01*
X151445000Y-120981939D01*
X151445000Y-120778061D01*
X151405226Y-120578102D01*
X151327205Y-120389744D01*
X151213937Y-120220226D01*
X151207789Y-120214078D01*
X151297205Y-120080256D01*
X151375226Y-119891898D01*
X151415000Y-119691939D01*
X151415000Y-119488061D01*
X151375226Y-119288102D01*
X151297205Y-119099744D01*
X151239832Y-119013879D01*
X151283937Y-118969774D01*
X151397205Y-118800256D01*
X151475226Y-118611898D01*
X151515000Y-118411939D01*
X151515000Y-118208061D01*
X151475226Y-118008102D01*
X151397205Y-117819744D01*
X151358038Y-117761126D01*
X151478061Y-117785000D01*
X151681939Y-117785000D01*
X151881898Y-117745226D01*
X152070256Y-117667205D01*
X152239774Y-117553937D01*
X152383937Y-117409774D01*
X152497205Y-117240256D01*
X152575226Y-117051898D01*
X152615000Y-116851939D01*
X152615000Y-116815000D01*
X152661939Y-116815000D01*
X152861898Y-116775226D01*
X153050256Y-116697205D01*
X153219774Y-116583937D01*
X153363937Y-116439774D01*
X153477205Y-116270256D01*
X153526054Y-116152325D01*
X153559784Y-116321898D01*
X153637805Y-116510256D01*
X153683515Y-116578666D01*
X153682795Y-116579744D01*
X153604774Y-116768102D01*
X153565000Y-116968061D01*
X153565000Y-117171939D01*
X153604774Y-117371898D01*
X153682795Y-117560256D01*
X153796063Y-117729774D01*
X153940226Y-117873937D01*
X154109744Y-117987205D01*
X154298102Y-118065226D01*
X154375000Y-118080522D01*
X154375000Y-118111939D01*
X154414774Y-118311898D01*
X154492795Y-118500256D01*
X154606063Y-118669774D01*
X154750226Y-118813937D01*
X154919744Y-118927205D01*
X155108102Y-119005226D01*
X155308061Y-119045000D01*
X155511939Y-119045000D01*
X155711898Y-119005226D01*
X155900256Y-118927205D01*
X156069774Y-118813937D01*
X156213937Y-118669774D01*
X156327205Y-118500256D01*
X156405226Y-118311898D01*
X156445000Y-118111939D01*
X156445000Y-118049801D01*
X157920000Y-116574802D01*
X158947615Y-117602417D01*
X158930000Y-117690976D01*
X158930000Y-117949024D01*
X158980342Y-118202113D01*
X159079093Y-118440518D01*
X159222456Y-118655077D01*
X159404923Y-118837544D01*
X159619482Y-118980907D01*
X159857887Y-119079658D01*
X159909880Y-119090000D01*
X159857887Y-119100342D01*
X159619482Y-119199093D01*
X159404923Y-119342456D01*
X159222456Y-119524923D01*
X159079093Y-119739482D01*
X158980342Y-119977887D01*
X158930000Y-120230976D01*
X158930000Y-120489024D01*
X158980342Y-120742113D01*
X159079093Y-120980518D01*
X159222456Y-121195077D01*
X159404923Y-121377544D01*
X159619482Y-121520907D01*
X159857887Y-121619658D01*
X159909880Y-121630000D01*
X159857887Y-121640342D01*
X159619482Y-121739093D01*
X159404923Y-121882456D01*
X159222456Y-122064923D01*
X159079093Y-122279482D01*
X158980342Y-122517887D01*
X158930000Y-122770976D01*
X158930000Y-123029024D01*
X158980342Y-123282113D01*
X159079093Y-123520518D01*
X159222456Y-123735077D01*
X159404923Y-123917544D01*
X159619482Y-124060907D01*
X159857887Y-124159658D01*
X159909880Y-124170000D01*
X159857887Y-124180342D01*
X159619482Y-124279093D01*
X159404923Y-124422456D01*
X159222456Y-124604923D01*
X159079093Y-124819482D01*
X158980342Y-125057887D01*
X158930000Y-125310976D01*
X158930000Y-125569024D01*
X158980342Y-125822113D01*
X159079093Y-126060518D01*
X159222456Y-126275077D01*
X159404923Y-126457544D01*
X159619482Y-126600907D01*
X159857887Y-126699658D01*
X159909880Y-126710000D01*
X159857887Y-126720342D01*
X159619482Y-126819093D01*
X159404923Y-126962456D01*
X159222456Y-127144923D01*
X159079093Y-127359482D01*
X158980342Y-127597887D01*
X158930000Y-127850976D01*
X158930000Y-128109024D01*
X158980342Y-128362113D01*
X159079093Y-128600518D01*
X159222456Y-128815077D01*
X159404923Y-128997544D01*
X159619482Y-129140907D01*
X159857887Y-129239658D01*
X159909880Y-129250000D01*
X159857887Y-129260342D01*
X159619482Y-129359093D01*
X159404923Y-129502456D01*
X159222456Y-129684923D01*
X159079093Y-129899482D01*
X158980342Y-130137887D01*
X158930000Y-130390976D01*
X158930000Y-130649024D01*
X158980342Y-130902113D01*
X159079093Y-131140518D01*
X159222456Y-131355077D01*
X159404923Y-131537544D01*
X159619482Y-131680907D01*
X159857887Y-131779658D01*
X160110976Y-131830000D01*
X160369024Y-131830000D01*
X160622113Y-131779658D01*
X160860518Y-131680907D01*
X161075077Y-131537544D01*
X161257544Y-131355077D01*
X161260001Y-131351400D01*
X161260001Y-131870000D01*
X144080000Y-131870000D01*
X144080000Y-131460714D01*
X144159447Y-131540161D01*
X144276206Y-131423402D01*
X144332630Y-131654621D01*
X144566808Y-131763017D01*
X144817633Y-131823645D01*
X145075465Y-131834174D01*
X145330398Y-131794200D01*
X145572633Y-131705259D01*
X145667370Y-131654621D01*
X145723795Y-131423400D01*
X145000000Y-130699605D01*
X144985858Y-130713748D01*
X144806253Y-130534143D01*
X144820395Y-130520000D01*
X145179605Y-130520000D01*
X145903400Y-131243795D01*
X146134621Y-131187370D01*
X146243017Y-130953192D01*
X146303645Y-130702367D01*
X146314174Y-130444535D01*
X146274200Y-130189602D01*
X146185259Y-129947367D01*
X146134621Y-129852630D01*
X145903400Y-129796205D01*
X145179605Y-130520000D01*
X144820395Y-130520000D01*
X144806253Y-130505858D01*
X144985858Y-130326253D01*
X145000000Y-130340395D01*
X145723795Y-129616600D01*
X145667370Y-129385379D01*
X145433192Y-129276983D01*
X145325424Y-129250934D01*
X145382113Y-129239658D01*
X145620518Y-129140907D01*
X145835077Y-128997544D01*
X146017544Y-128815077D01*
X146160907Y-128600518D01*
X146259658Y-128362113D01*
X146310000Y-128109024D01*
X146310000Y-127850976D01*
X146259658Y-127597887D01*
X146160907Y-127359482D01*
X146017544Y-127144923D01*
X145835077Y-126962456D01*
X145620518Y-126819093D01*
X145382113Y-126720342D01*
X145330120Y-126710000D01*
X145382113Y-126699658D01*
X145620518Y-126600907D01*
X145835077Y-126457544D01*
X146017544Y-126275077D01*
X146160907Y-126060518D01*
X146259658Y-125822113D01*
X146310000Y-125569024D01*
X146310000Y-125310976D01*
X146259658Y-125057887D01*
X146160907Y-124819482D01*
X146017544Y-124604923D01*
X145835077Y-124422456D01*
X145620518Y-124279093D01*
X145382113Y-124180342D01*
X145330120Y-124170000D01*
X145382113Y-124159658D01*
X145620518Y-124060907D01*
X145835077Y-123917544D01*
X146017544Y-123735077D01*
X146160907Y-123520518D01*
X146259658Y-123282113D01*
X146310000Y-123029024D01*
X146310000Y-122770976D01*
X146259658Y-122517887D01*
X146160907Y-122279482D01*
X146017544Y-122064923D01*
X145835077Y-121882456D01*
X145620518Y-121739093D01*
X145382113Y-121640342D01*
X145330120Y-121630000D01*
X145382113Y-121619658D01*
X145620518Y-121520907D01*
X145835077Y-121377544D01*
X146017544Y-121195077D01*
X146160907Y-120980518D01*
X146259658Y-120742113D01*
X146310000Y-120489024D01*
X146310000Y-120230976D01*
X146259658Y-119977887D01*
X146160907Y-119739482D01*
X146017544Y-119524923D01*
X145835077Y-119342456D01*
X145620518Y-119199093D01*
X145382113Y-119100342D01*
X145330120Y-119090000D01*
X145382113Y-119079658D01*
X145620518Y-118980907D01*
X145835077Y-118837544D01*
X146017544Y-118655077D01*
X146160907Y-118440518D01*
X146259658Y-118202113D01*
X146310000Y-117949024D01*
X146310000Y-117690976D01*
X146259658Y-117437887D01*
X146160907Y-117199482D01*
X146017544Y-116984923D01*
X145835077Y-116802456D01*
X145620518Y-116659093D01*
X145382113Y-116560342D01*
X145330120Y-116550000D01*
X145382113Y-116539658D01*
X145620518Y-116440907D01*
X145835077Y-116297544D01*
X146017544Y-116115077D01*
X146160907Y-115900518D01*
X146259658Y-115662113D01*
X146310000Y-115409024D01*
X146310000Y-115150976D01*
X146259658Y-114897887D01*
X146160907Y-114659482D01*
X146017544Y-114444923D01*
X145835077Y-114262456D01*
X145620518Y-114119093D01*
X145382113Y-114020342D01*
X145330120Y-114010000D01*
X145382113Y-113999658D01*
X145620518Y-113900907D01*
X145835077Y-113757544D01*
X146017544Y-113575077D01*
X146067709Y-113500000D01*
X147695199Y-113500000D01*
X147850000Y-113654802D01*
%TA.AperFunction,Conductor*%
D16*
G36*
X147850000Y-113654802D02*
G01*
X147850001Y-119042668D01*
X147846324Y-119080000D01*
X147860998Y-119228985D01*
X147904454Y-119372246D01*
X147975026Y-119504276D01*
X148045378Y-119589999D01*
X148070000Y-119620001D01*
X148098998Y-119643799D01*
X149375000Y-120919802D01*
X149375000Y-120981939D01*
X149414774Y-121181898D01*
X149492795Y-121370256D01*
X149606063Y-121539774D01*
X149750226Y-121683937D01*
X149919744Y-121797205D01*
X150108102Y-121875226D01*
X150308061Y-121915000D01*
X150511939Y-121915000D01*
X150711898Y-121875226D01*
X150900256Y-121797205D01*
X151069774Y-121683937D01*
X151213937Y-121539774D01*
X151327205Y-121370256D01*
X151405226Y-121181898D01*
X151445000Y-120981939D01*
X151445000Y-120778061D01*
X151405226Y-120578102D01*
X151327205Y-120389744D01*
X151213937Y-120220226D01*
X151207789Y-120214078D01*
X151297205Y-120080256D01*
X151375226Y-119891898D01*
X151415000Y-119691939D01*
X151415000Y-119488061D01*
X151375226Y-119288102D01*
X151297205Y-119099744D01*
X151239832Y-119013879D01*
X151283937Y-118969774D01*
X151397205Y-118800256D01*
X151475226Y-118611898D01*
X151515000Y-118411939D01*
X151515000Y-118208061D01*
X151475226Y-118008102D01*
X151397205Y-117819744D01*
X151358038Y-117761126D01*
X151478061Y-117785000D01*
X151681939Y-117785000D01*
X151881898Y-117745226D01*
X152070256Y-117667205D01*
X152239774Y-117553937D01*
X152383937Y-117409774D01*
X152497205Y-117240256D01*
X152575226Y-117051898D01*
X152615000Y-116851939D01*
X152615000Y-116815000D01*
X152661939Y-116815000D01*
X152861898Y-116775226D01*
X153050256Y-116697205D01*
X153219774Y-116583937D01*
X153363937Y-116439774D01*
X153477205Y-116270256D01*
X153526054Y-116152325D01*
X153559784Y-116321898D01*
X153637805Y-116510256D01*
X153683515Y-116578666D01*
X153682795Y-116579744D01*
X153604774Y-116768102D01*
X153565000Y-116968061D01*
X153565000Y-117171939D01*
X153604774Y-117371898D01*
X153682795Y-117560256D01*
X153796063Y-117729774D01*
X153940226Y-117873937D01*
X154109744Y-117987205D01*
X154298102Y-118065226D01*
X154375000Y-118080522D01*
X154375000Y-118111939D01*
X154414774Y-118311898D01*
X154492795Y-118500256D01*
X154606063Y-118669774D01*
X154750226Y-118813937D01*
X154919744Y-118927205D01*
X155108102Y-119005226D01*
X155308061Y-119045000D01*
X155511939Y-119045000D01*
X155711898Y-119005226D01*
X155900256Y-118927205D01*
X156069774Y-118813937D01*
X156213937Y-118669774D01*
X156327205Y-118500256D01*
X156405226Y-118311898D01*
X156445000Y-118111939D01*
X156445000Y-118049801D01*
X157920000Y-116574802D01*
X158947615Y-117602417D01*
X158930000Y-117690976D01*
X158930000Y-117949024D01*
X158980342Y-118202113D01*
X159079093Y-118440518D01*
X159222456Y-118655077D01*
X159404923Y-118837544D01*
X159619482Y-118980907D01*
X159857887Y-119079658D01*
X159909880Y-119090000D01*
X159857887Y-119100342D01*
X159619482Y-119199093D01*
X159404923Y-119342456D01*
X159222456Y-119524923D01*
X159079093Y-119739482D01*
X158980342Y-119977887D01*
X158930000Y-120230976D01*
X158930000Y-120489024D01*
X158980342Y-120742113D01*
X159079093Y-120980518D01*
X159222456Y-121195077D01*
X159404923Y-121377544D01*
X159619482Y-121520907D01*
X159857887Y-121619658D01*
X159909880Y-121630000D01*
X159857887Y-121640342D01*
X159619482Y-121739093D01*
X159404923Y-121882456D01*
X159222456Y-122064923D01*
X159079093Y-122279482D01*
X158980342Y-122517887D01*
X158930000Y-122770976D01*
X158930000Y-123029024D01*
X158980342Y-123282113D01*
X159079093Y-123520518D01*
X159222456Y-123735077D01*
X159404923Y-123917544D01*
X159619482Y-124060907D01*
X159857887Y-124159658D01*
X159909880Y-124170000D01*
X159857887Y-124180342D01*
X159619482Y-124279093D01*
X159404923Y-124422456D01*
X159222456Y-124604923D01*
X159079093Y-124819482D01*
X158980342Y-125057887D01*
X158930000Y-125310976D01*
X158930000Y-125569024D01*
X158980342Y-125822113D01*
X159079093Y-126060518D01*
X159222456Y-126275077D01*
X159404923Y-126457544D01*
X159619482Y-126600907D01*
X159857887Y-126699658D01*
X159909880Y-126710000D01*
X159857887Y-126720342D01*
X159619482Y-126819093D01*
X159404923Y-126962456D01*
X159222456Y-127144923D01*
X159079093Y-127359482D01*
X158980342Y-127597887D01*
X158930000Y-127850976D01*
X158930000Y-128109024D01*
X158980342Y-128362113D01*
X159079093Y-128600518D01*
X159222456Y-128815077D01*
X159404923Y-128997544D01*
X159619482Y-129140907D01*
X159857887Y-129239658D01*
X159909880Y-129250000D01*
X159857887Y-129260342D01*
X159619482Y-129359093D01*
X159404923Y-129502456D01*
X159222456Y-129684923D01*
X159079093Y-129899482D01*
X158980342Y-130137887D01*
X158930000Y-130390976D01*
X158930000Y-130649024D01*
X158980342Y-130902113D01*
X159079093Y-131140518D01*
X159222456Y-131355077D01*
X159404923Y-131537544D01*
X159619482Y-131680907D01*
X159857887Y-131779658D01*
X160110976Y-131830000D01*
X160369024Y-131830000D01*
X160622113Y-131779658D01*
X160860518Y-131680907D01*
X161075077Y-131537544D01*
X161257544Y-131355077D01*
X161260001Y-131351400D01*
X161260001Y-131870000D01*
X144080000Y-131870000D01*
X144080000Y-131460714D01*
X144159447Y-131540161D01*
X144276206Y-131423402D01*
X144332630Y-131654621D01*
X144566808Y-131763017D01*
X144817633Y-131823645D01*
X145075465Y-131834174D01*
X145330398Y-131794200D01*
X145572633Y-131705259D01*
X145667370Y-131654621D01*
X145723795Y-131423400D01*
X145000000Y-130699605D01*
X144985858Y-130713748D01*
X144806253Y-130534143D01*
X144820395Y-130520000D01*
X145179605Y-130520000D01*
X145903400Y-131243795D01*
X146134621Y-131187370D01*
X146243017Y-130953192D01*
X146303645Y-130702367D01*
X146314174Y-130444535D01*
X146274200Y-130189602D01*
X146185259Y-129947367D01*
X146134621Y-129852630D01*
X145903400Y-129796205D01*
X145179605Y-130520000D01*
X144820395Y-130520000D01*
X144806253Y-130505858D01*
X144985858Y-130326253D01*
X145000000Y-130340395D01*
X145723795Y-129616600D01*
X145667370Y-129385379D01*
X145433192Y-129276983D01*
X145325424Y-129250934D01*
X145382113Y-129239658D01*
X145620518Y-129140907D01*
X145835077Y-128997544D01*
X146017544Y-128815077D01*
X146160907Y-128600518D01*
X146259658Y-128362113D01*
X146310000Y-128109024D01*
X146310000Y-127850976D01*
X146259658Y-127597887D01*
X146160907Y-127359482D01*
X146017544Y-127144923D01*
X145835077Y-126962456D01*
X145620518Y-126819093D01*
X145382113Y-126720342D01*
X145330120Y-126710000D01*
X145382113Y-126699658D01*
X145620518Y-126600907D01*
X145835077Y-126457544D01*
X146017544Y-126275077D01*
X146160907Y-126060518D01*
X146259658Y-125822113D01*
X146310000Y-125569024D01*
X146310000Y-125310976D01*
X146259658Y-125057887D01*
X146160907Y-124819482D01*
X146017544Y-124604923D01*
X145835077Y-124422456D01*
X145620518Y-124279093D01*
X145382113Y-124180342D01*
X145330120Y-124170000D01*
X145382113Y-124159658D01*
X145620518Y-124060907D01*
X145835077Y-123917544D01*
X146017544Y-123735077D01*
X146160907Y-123520518D01*
X146259658Y-123282113D01*
X146310000Y-123029024D01*
X146310000Y-122770976D01*
X146259658Y-122517887D01*
X146160907Y-122279482D01*
X146017544Y-122064923D01*
X145835077Y-121882456D01*
X145620518Y-121739093D01*
X145382113Y-121640342D01*
X145330120Y-121630000D01*
X145382113Y-121619658D01*
X145620518Y-121520907D01*
X145835077Y-121377544D01*
X146017544Y-121195077D01*
X146160907Y-120980518D01*
X146259658Y-120742113D01*
X146310000Y-120489024D01*
X146310000Y-120230976D01*
X146259658Y-119977887D01*
X146160907Y-119739482D01*
X146017544Y-119524923D01*
X145835077Y-119342456D01*
X145620518Y-119199093D01*
X145382113Y-119100342D01*
X145330120Y-119090000D01*
X145382113Y-119079658D01*
X145620518Y-118980907D01*
X145835077Y-118837544D01*
X146017544Y-118655077D01*
X146160907Y-118440518D01*
X146259658Y-118202113D01*
X146310000Y-117949024D01*
X146310000Y-117690976D01*
X146259658Y-117437887D01*
X146160907Y-117199482D01*
X146017544Y-116984923D01*
X145835077Y-116802456D01*
X145620518Y-116659093D01*
X145382113Y-116560342D01*
X145330120Y-116550000D01*
X145382113Y-116539658D01*
X145620518Y-116440907D01*
X145835077Y-116297544D01*
X146017544Y-116115077D01*
X146160907Y-115900518D01*
X146259658Y-115662113D01*
X146310000Y-115409024D01*
X146310000Y-115150976D01*
X146259658Y-114897887D01*
X146160907Y-114659482D01*
X146017544Y-114444923D01*
X145835077Y-114262456D01*
X145620518Y-114119093D01*
X145382113Y-114020342D01*
X145330120Y-114010000D01*
X145382113Y-113999658D01*
X145620518Y-113900907D01*
X145835077Y-113757544D01*
X146017544Y-113575077D01*
X146067709Y-113500000D01*
X147695199Y-113500000D01*
X147850000Y-113654802D01*
G37*
%TD.AperFunction*%
D15*
X153695000Y-114549802D02*
X153695000Y-114611939D01*
X153734774Y-114811898D01*
X153812795Y-115000256D01*
X153926063Y-115169774D01*
X153941464Y-115185175D01*
X153895236Y-115216063D01*
X153751073Y-115360226D01*
X153637805Y-115529744D01*
X153588956Y-115647675D01*
X153555226Y-115478102D01*
X153477205Y-115289744D01*
X153363937Y-115120226D01*
X153320000Y-115076289D01*
X153320000Y-114174802D01*
X153695000Y-114549802D01*
%TA.AperFunction,Conductor*%
D16*
G36*
X153695000Y-114549802D02*
G01*
X153695000Y-114611939D01*
X153734774Y-114811898D01*
X153812795Y-115000256D01*
X153926063Y-115169774D01*
X153941464Y-115185175D01*
X153895236Y-115216063D01*
X153751073Y-115360226D01*
X153637805Y-115529744D01*
X153588956Y-115647675D01*
X153555226Y-115478102D01*
X153477205Y-115289744D01*
X153363937Y-115120226D01*
X153320000Y-115076289D01*
X153320000Y-114174802D01*
X153695000Y-114549802D01*
G37*
%TD.AperFunction*%
D15*
X152440000Y-107624802D02*
X152440001Y-111071288D01*
X152403045Y-111108244D01*
X152300000Y-111005199D01*
X152300000Y-107484802D01*
X152440000Y-107624802D01*
%TA.AperFunction,Conductor*%
D16*
G36*
X152440000Y-107624802D02*
G01*
X152440001Y-111071288D01*
X152403045Y-111108244D01*
X152300000Y-111005199D01*
X152300000Y-107484802D01*
X152440000Y-107624802D01*
G37*
%TD.AperFunction*%
D15*
X154112795Y-95969744D02*
X154034774Y-96158102D01*
X153995000Y-96358061D01*
X153995000Y-96561939D01*
X154034774Y-96761898D01*
X154112795Y-96950256D01*
X154226063Y-97119774D01*
X154370226Y-97263937D01*
X154539744Y-97377205D01*
X154728102Y-97455226D01*
X154928061Y-97495000D01*
X155131939Y-97495000D01*
X155331898Y-97455226D01*
X155520256Y-97377205D01*
X155689774Y-97263937D01*
X155733711Y-97220000D01*
X157728422Y-97220000D01*
X157504951Y-97443471D01*
X157471184Y-97471183D01*
X157443471Y-97504951D01*
X157443468Y-97504954D01*
X157360590Y-97605941D01*
X157278412Y-97759687D01*
X157227805Y-97926510D01*
X157210719Y-98100000D01*
X157215001Y-98143479D01*
X157215000Y-99133421D01*
X156108953Y-100239469D01*
X156145226Y-100151898D01*
X156185000Y-99951939D01*
X156185000Y-99748061D01*
X156145226Y-99548102D01*
X156067205Y-99359744D01*
X155953937Y-99190226D01*
X155809774Y-99046063D01*
X155640256Y-98932795D01*
X155451898Y-98854774D01*
X155251939Y-98815000D01*
X155048061Y-98815000D01*
X154848102Y-98854774D01*
X154659744Y-98932795D01*
X154490226Y-99046063D01*
X154446289Y-99090000D01*
X153687325Y-99090000D01*
X153650000Y-99086324D01*
X153612675Y-99090000D01*
X153612667Y-99090000D01*
X153501014Y-99100997D01*
X153357753Y-99144454D01*
X153225724Y-99215026D01*
X153109999Y-99309999D01*
X153086201Y-99338997D01*
X152300000Y-100125199D01*
X152300000Y-99724801D01*
X152399801Y-99625000D01*
X152461939Y-99625000D01*
X152661898Y-99585226D01*
X152850256Y-99507205D01*
X153019774Y-99393937D01*
X153163937Y-99249774D01*
X153277205Y-99080256D01*
X153355226Y-98891898D01*
X153395000Y-98691939D01*
X153395000Y-98488061D01*
X153355226Y-98288102D01*
X153277205Y-98099744D01*
X153163937Y-97930226D01*
X153019774Y-97786063D01*
X152850256Y-97672795D01*
X152661898Y-97594774D01*
X152461939Y-97555000D01*
X152258061Y-97555000D01*
X152058102Y-97594774D01*
X151869744Y-97672795D01*
X151700226Y-97786063D01*
X151556063Y-97930226D01*
X151442795Y-98099744D01*
X151364774Y-98288102D01*
X151325000Y-98488061D01*
X151325000Y-98550199D01*
X151028998Y-98846201D01*
X151000000Y-98869999D01*
X150976202Y-98898997D01*
X150976201Y-98898998D01*
X150905026Y-98985724D01*
X150834454Y-99117754D01*
X150790998Y-99261015D01*
X150776324Y-99410000D01*
X150780001Y-99447332D01*
X150780000Y-101107332D01*
X150780001Y-101107342D01*
X150780000Y-110385199D01*
X147735000Y-107340199D01*
X147735000Y-105502325D01*
X147738676Y-105465000D01*
X147735000Y-105427675D01*
X147735000Y-105427667D01*
X147724003Y-105316014D01*
X147680546Y-105172753D01*
X147609974Y-105040724D01*
X147515001Y-104924999D01*
X147486004Y-104901202D01*
X146008711Y-103423910D01*
X146017544Y-103415077D01*
X146160907Y-103200518D01*
X146259658Y-102962113D01*
X146310000Y-102709024D01*
X146310000Y-102450976D01*
X146259658Y-102197887D01*
X146160907Y-101959482D01*
X146017544Y-101744923D01*
X145835077Y-101562456D01*
X145620518Y-101419093D01*
X145382113Y-101320342D01*
X145330120Y-101310000D01*
X145382113Y-101299658D01*
X145620518Y-101200907D01*
X145835077Y-101057544D01*
X146017544Y-100875077D01*
X146160907Y-100660518D01*
X146259658Y-100422113D01*
X146310000Y-100169024D01*
X146310000Y-99910976D01*
X146259658Y-99657887D01*
X146160907Y-99419482D01*
X146017544Y-99204923D01*
X145835077Y-99022456D01*
X145620518Y-98879093D01*
X145461130Y-98813072D01*
X145675000Y-98813072D01*
X145799482Y-98800812D01*
X145919180Y-98764502D01*
X146029494Y-98705537D01*
X146126185Y-98626185D01*
X146205537Y-98529494D01*
X146264502Y-98419180D01*
X146300812Y-98299482D01*
X146313072Y-98175000D01*
X146313072Y-96825000D01*
X146300812Y-96700518D01*
X146264502Y-96580820D01*
X146205537Y-96470506D01*
X146126185Y-96373815D01*
X146029494Y-96294463D01*
X145919180Y-96235498D01*
X145799482Y-96199188D01*
X145675000Y-96186928D01*
X144325000Y-96186928D01*
X144200518Y-96199188D01*
X144080820Y-96235498D01*
X144080000Y-96235936D01*
X144080000Y-95810000D01*
X154219532Y-95810000D01*
X154112795Y-95969744D01*
%TA.AperFunction,Conductor*%
D16*
G36*
X154112795Y-95969744D02*
G01*
X154034774Y-96158102D01*
X153995000Y-96358061D01*
X153995000Y-96561939D01*
X154034774Y-96761898D01*
X154112795Y-96950256D01*
X154226063Y-97119774D01*
X154370226Y-97263937D01*
X154539744Y-97377205D01*
X154728102Y-97455226D01*
X154928061Y-97495000D01*
X155131939Y-97495000D01*
X155331898Y-97455226D01*
X155520256Y-97377205D01*
X155689774Y-97263937D01*
X155733711Y-97220000D01*
X157728422Y-97220000D01*
X157504951Y-97443471D01*
X157471184Y-97471183D01*
X157443471Y-97504951D01*
X157443468Y-97504954D01*
X157360590Y-97605941D01*
X157278412Y-97759687D01*
X157227805Y-97926510D01*
X157210719Y-98100000D01*
X157215001Y-98143479D01*
X157215000Y-99133421D01*
X156108953Y-100239469D01*
X156145226Y-100151898D01*
X156185000Y-99951939D01*
X156185000Y-99748061D01*
X156145226Y-99548102D01*
X156067205Y-99359744D01*
X155953937Y-99190226D01*
X155809774Y-99046063D01*
X155640256Y-98932795D01*
X155451898Y-98854774D01*
X155251939Y-98815000D01*
X155048061Y-98815000D01*
X154848102Y-98854774D01*
X154659744Y-98932795D01*
X154490226Y-99046063D01*
X154446289Y-99090000D01*
X153687325Y-99090000D01*
X153650000Y-99086324D01*
X153612675Y-99090000D01*
X153612667Y-99090000D01*
X153501014Y-99100997D01*
X153357753Y-99144454D01*
X153225724Y-99215026D01*
X153109999Y-99309999D01*
X153086201Y-99338997D01*
X152300000Y-100125199D01*
X152300000Y-99724801D01*
X152399801Y-99625000D01*
X152461939Y-99625000D01*
X152661898Y-99585226D01*
X152850256Y-99507205D01*
X153019774Y-99393937D01*
X153163937Y-99249774D01*
X153277205Y-99080256D01*
X153355226Y-98891898D01*
X153395000Y-98691939D01*
X153395000Y-98488061D01*
X153355226Y-98288102D01*
X153277205Y-98099744D01*
X153163937Y-97930226D01*
X153019774Y-97786063D01*
X152850256Y-97672795D01*
X152661898Y-97594774D01*
X152461939Y-97555000D01*
X152258061Y-97555000D01*
X152058102Y-97594774D01*
X151869744Y-97672795D01*
X151700226Y-97786063D01*
X151556063Y-97930226D01*
X151442795Y-98099744D01*
X151364774Y-98288102D01*
X151325000Y-98488061D01*
X151325000Y-98550199D01*
X151028998Y-98846201D01*
X151000000Y-98869999D01*
X150976202Y-98898997D01*
X150976201Y-98898998D01*
X150905026Y-98985724D01*
X150834454Y-99117754D01*
X150790998Y-99261015D01*
X150776324Y-99410000D01*
X150780001Y-99447332D01*
X150780000Y-101107332D01*
X150780001Y-101107342D01*
X150780000Y-110385199D01*
X147735000Y-107340199D01*
X147735000Y-105502325D01*
X147738676Y-105465000D01*
X147735000Y-105427675D01*
X147735000Y-105427667D01*
X147724003Y-105316014D01*
X147680546Y-105172753D01*
X147609974Y-105040724D01*
X147515001Y-104924999D01*
X147486004Y-104901202D01*
X146008711Y-103423910D01*
X146017544Y-103415077D01*
X146160907Y-103200518D01*
X146259658Y-102962113D01*
X146310000Y-102709024D01*
X146310000Y-102450976D01*
X146259658Y-102197887D01*
X146160907Y-101959482D01*
X146017544Y-101744923D01*
X145835077Y-101562456D01*
X145620518Y-101419093D01*
X145382113Y-101320342D01*
X145330120Y-101310000D01*
X145382113Y-101299658D01*
X145620518Y-101200907D01*
X145835077Y-101057544D01*
X146017544Y-100875077D01*
X146160907Y-100660518D01*
X146259658Y-100422113D01*
X146310000Y-100169024D01*
X146310000Y-99910976D01*
X146259658Y-99657887D01*
X146160907Y-99419482D01*
X146017544Y-99204923D01*
X145835077Y-99022456D01*
X145620518Y-98879093D01*
X145461130Y-98813072D01*
X145675000Y-98813072D01*
X145799482Y-98800812D01*
X145919180Y-98764502D01*
X146029494Y-98705537D01*
X146126185Y-98626185D01*
X146205537Y-98529494D01*
X146264502Y-98419180D01*
X146300812Y-98299482D01*
X146313072Y-98175000D01*
X146313072Y-96825000D01*
X146300812Y-96700518D01*
X146264502Y-96580820D01*
X146205537Y-96470506D01*
X146126185Y-96373815D01*
X146029494Y-96294463D01*
X145919180Y-96235498D01*
X145799482Y-96199188D01*
X145675000Y-96186928D01*
X144325000Y-96186928D01*
X144200518Y-96199188D01*
X144080820Y-96235498D01*
X144080000Y-96235936D01*
X144080000Y-95810000D01*
X154219532Y-95810000D01*
X154112795Y-95969744D01*
G37*
%TD.AperFunction*%
%TD*%
M02*
