%TF.GenerationSoftware,KiCad,Pcbnew,(5.1.12)-1*%
%TF.CreationDate,2023-02-10T19:32:18+01:00*%
%TF.ProjectId,bigrom,62696772-6f6d-42e6-9b69-6361645f7063,rev?*%
%TF.SameCoordinates,Original*%
%TF.FileFunction,Paste,Top*%
%TF.FilePolarity,Positive*%
%FSLAX46Y46*%
G04 Gerber Fmt 4.6, Leading zero omitted, Abs format (unit mm)*
G04 Created by KiCad (PCBNEW (5.1.12)-1) date 2023-02-10 19:32:18*
%MOMM*%
%LPD*%
G01*
G04 APERTURE LIST*
G04 APERTURE END LIST*
%TO.C,U2*%
G36*
G01*
X146925000Y-113395000D02*
X146925000Y-113095000D01*
G75*
G02*
X147075000Y-112945000I150000J0D01*
G01*
X148825000Y-112945000D01*
G75*
G02*
X148975000Y-113095000I0J-150000D01*
G01*
X148975000Y-113395000D01*
G75*
G02*
X148825000Y-113545000I-150000J0D01*
G01*
X147075000Y-113545000D01*
G75*
G02*
X146925000Y-113395000I0J150000D01*
G01*
G37*
G36*
G01*
X146925000Y-114665000D02*
X146925000Y-114365000D01*
G75*
G02*
X147075000Y-114215000I150000J0D01*
G01*
X148825000Y-114215000D01*
G75*
G02*
X148975000Y-114365000I0J-150000D01*
G01*
X148975000Y-114665000D01*
G75*
G02*
X148825000Y-114815000I-150000J0D01*
G01*
X147075000Y-114815000D01*
G75*
G02*
X146925000Y-114665000I0J150000D01*
G01*
G37*
G36*
G01*
X146925000Y-115935000D02*
X146925000Y-115635000D01*
G75*
G02*
X147075000Y-115485000I150000J0D01*
G01*
X148825000Y-115485000D01*
G75*
G02*
X148975000Y-115635000I0J-150000D01*
G01*
X148975000Y-115935000D01*
G75*
G02*
X148825000Y-116085000I-150000J0D01*
G01*
X147075000Y-116085000D01*
G75*
G02*
X146925000Y-115935000I0J150000D01*
G01*
G37*
G36*
G01*
X146925000Y-117205000D02*
X146925000Y-116905000D01*
G75*
G02*
X147075000Y-116755000I150000J0D01*
G01*
X148825000Y-116755000D01*
G75*
G02*
X148975000Y-116905000I0J-150000D01*
G01*
X148975000Y-117205000D01*
G75*
G02*
X148825000Y-117355000I-150000J0D01*
G01*
X147075000Y-117355000D01*
G75*
G02*
X146925000Y-117205000I0J150000D01*
G01*
G37*
G36*
G01*
X146925000Y-118475000D02*
X146925000Y-118175000D01*
G75*
G02*
X147075000Y-118025000I150000J0D01*
G01*
X148825000Y-118025000D01*
G75*
G02*
X148975000Y-118175000I0J-150000D01*
G01*
X148975000Y-118475000D01*
G75*
G02*
X148825000Y-118625000I-150000J0D01*
G01*
X147075000Y-118625000D01*
G75*
G02*
X146925000Y-118475000I0J150000D01*
G01*
G37*
G36*
G01*
X146925000Y-119745000D02*
X146925000Y-119445000D01*
G75*
G02*
X147075000Y-119295000I150000J0D01*
G01*
X148825000Y-119295000D01*
G75*
G02*
X148975000Y-119445000I0J-150000D01*
G01*
X148975000Y-119745000D01*
G75*
G02*
X148825000Y-119895000I-150000J0D01*
G01*
X147075000Y-119895000D01*
G75*
G02*
X146925000Y-119745000I0J150000D01*
G01*
G37*
G36*
G01*
X146925000Y-121015000D02*
X146925000Y-120715000D01*
G75*
G02*
X147075000Y-120565000I150000J0D01*
G01*
X148825000Y-120565000D01*
G75*
G02*
X148975000Y-120715000I0J-150000D01*
G01*
X148975000Y-121015000D01*
G75*
G02*
X148825000Y-121165000I-150000J0D01*
G01*
X147075000Y-121165000D01*
G75*
G02*
X146925000Y-121015000I0J150000D01*
G01*
G37*
G36*
G01*
X146925000Y-122285000D02*
X146925000Y-121985000D01*
G75*
G02*
X147075000Y-121835000I150000J0D01*
G01*
X148825000Y-121835000D01*
G75*
G02*
X148975000Y-121985000I0J-150000D01*
G01*
X148975000Y-122285000D01*
G75*
G02*
X148825000Y-122435000I-150000J0D01*
G01*
X147075000Y-122435000D01*
G75*
G02*
X146925000Y-122285000I0J150000D01*
G01*
G37*
G36*
G01*
X146925000Y-123555000D02*
X146925000Y-123255000D01*
G75*
G02*
X147075000Y-123105000I150000J0D01*
G01*
X148825000Y-123105000D01*
G75*
G02*
X148975000Y-123255000I0J-150000D01*
G01*
X148975000Y-123555000D01*
G75*
G02*
X148825000Y-123705000I-150000J0D01*
G01*
X147075000Y-123705000D01*
G75*
G02*
X146925000Y-123555000I0J150000D01*
G01*
G37*
G36*
G01*
X146925000Y-124825000D02*
X146925000Y-124525000D01*
G75*
G02*
X147075000Y-124375000I150000J0D01*
G01*
X148825000Y-124375000D01*
G75*
G02*
X148975000Y-124525000I0J-150000D01*
G01*
X148975000Y-124825000D01*
G75*
G02*
X148825000Y-124975000I-150000J0D01*
G01*
X147075000Y-124975000D01*
G75*
G02*
X146925000Y-124825000I0J150000D01*
G01*
G37*
G36*
G01*
X146925000Y-126095000D02*
X146925000Y-125795000D01*
G75*
G02*
X147075000Y-125645000I150000J0D01*
G01*
X148825000Y-125645000D01*
G75*
G02*
X148975000Y-125795000I0J-150000D01*
G01*
X148975000Y-126095000D01*
G75*
G02*
X148825000Y-126245000I-150000J0D01*
G01*
X147075000Y-126245000D01*
G75*
G02*
X146925000Y-126095000I0J150000D01*
G01*
G37*
G36*
G01*
X146925000Y-127365000D02*
X146925000Y-127065000D01*
G75*
G02*
X147075000Y-126915000I150000J0D01*
G01*
X148825000Y-126915000D01*
G75*
G02*
X148975000Y-127065000I0J-150000D01*
G01*
X148975000Y-127365000D01*
G75*
G02*
X148825000Y-127515000I-150000J0D01*
G01*
X147075000Y-127515000D01*
G75*
G02*
X146925000Y-127365000I0J150000D01*
G01*
G37*
G36*
G01*
X146925000Y-128635000D02*
X146925000Y-128335000D01*
G75*
G02*
X147075000Y-128185000I150000J0D01*
G01*
X148825000Y-128185000D01*
G75*
G02*
X148975000Y-128335000I0J-150000D01*
G01*
X148975000Y-128635000D01*
G75*
G02*
X148825000Y-128785000I-150000J0D01*
G01*
X147075000Y-128785000D01*
G75*
G02*
X146925000Y-128635000I0J150000D01*
G01*
G37*
G36*
G01*
X146925000Y-129905000D02*
X146925000Y-129605000D01*
G75*
G02*
X147075000Y-129455000I150000J0D01*
G01*
X148825000Y-129455000D01*
G75*
G02*
X148975000Y-129605000I0J-150000D01*
G01*
X148975000Y-129905000D01*
G75*
G02*
X148825000Y-130055000I-150000J0D01*
G01*
X147075000Y-130055000D01*
G75*
G02*
X146925000Y-129905000I0J150000D01*
G01*
G37*
G36*
G01*
X156225000Y-129905000D02*
X156225000Y-129605000D01*
G75*
G02*
X156375000Y-129455000I150000J0D01*
G01*
X158125000Y-129455000D01*
G75*
G02*
X158275000Y-129605000I0J-150000D01*
G01*
X158275000Y-129905000D01*
G75*
G02*
X158125000Y-130055000I-150000J0D01*
G01*
X156375000Y-130055000D01*
G75*
G02*
X156225000Y-129905000I0J150000D01*
G01*
G37*
G36*
G01*
X156225000Y-128635000D02*
X156225000Y-128335000D01*
G75*
G02*
X156375000Y-128185000I150000J0D01*
G01*
X158125000Y-128185000D01*
G75*
G02*
X158275000Y-128335000I0J-150000D01*
G01*
X158275000Y-128635000D01*
G75*
G02*
X158125000Y-128785000I-150000J0D01*
G01*
X156375000Y-128785000D01*
G75*
G02*
X156225000Y-128635000I0J150000D01*
G01*
G37*
G36*
G01*
X156225000Y-127365000D02*
X156225000Y-127065000D01*
G75*
G02*
X156375000Y-126915000I150000J0D01*
G01*
X158125000Y-126915000D01*
G75*
G02*
X158275000Y-127065000I0J-150000D01*
G01*
X158275000Y-127365000D01*
G75*
G02*
X158125000Y-127515000I-150000J0D01*
G01*
X156375000Y-127515000D01*
G75*
G02*
X156225000Y-127365000I0J150000D01*
G01*
G37*
G36*
G01*
X156225000Y-126095000D02*
X156225000Y-125795000D01*
G75*
G02*
X156375000Y-125645000I150000J0D01*
G01*
X158125000Y-125645000D01*
G75*
G02*
X158275000Y-125795000I0J-150000D01*
G01*
X158275000Y-126095000D01*
G75*
G02*
X158125000Y-126245000I-150000J0D01*
G01*
X156375000Y-126245000D01*
G75*
G02*
X156225000Y-126095000I0J150000D01*
G01*
G37*
G36*
G01*
X156225000Y-124825000D02*
X156225000Y-124525000D01*
G75*
G02*
X156375000Y-124375000I150000J0D01*
G01*
X158125000Y-124375000D01*
G75*
G02*
X158275000Y-124525000I0J-150000D01*
G01*
X158275000Y-124825000D01*
G75*
G02*
X158125000Y-124975000I-150000J0D01*
G01*
X156375000Y-124975000D01*
G75*
G02*
X156225000Y-124825000I0J150000D01*
G01*
G37*
G36*
G01*
X156225000Y-123555000D02*
X156225000Y-123255000D01*
G75*
G02*
X156375000Y-123105000I150000J0D01*
G01*
X158125000Y-123105000D01*
G75*
G02*
X158275000Y-123255000I0J-150000D01*
G01*
X158275000Y-123555000D01*
G75*
G02*
X158125000Y-123705000I-150000J0D01*
G01*
X156375000Y-123705000D01*
G75*
G02*
X156225000Y-123555000I0J150000D01*
G01*
G37*
G36*
G01*
X156225000Y-122285000D02*
X156225000Y-121985000D01*
G75*
G02*
X156375000Y-121835000I150000J0D01*
G01*
X158125000Y-121835000D01*
G75*
G02*
X158275000Y-121985000I0J-150000D01*
G01*
X158275000Y-122285000D01*
G75*
G02*
X158125000Y-122435000I-150000J0D01*
G01*
X156375000Y-122435000D01*
G75*
G02*
X156225000Y-122285000I0J150000D01*
G01*
G37*
G36*
G01*
X156225000Y-121015000D02*
X156225000Y-120715000D01*
G75*
G02*
X156375000Y-120565000I150000J0D01*
G01*
X158125000Y-120565000D01*
G75*
G02*
X158275000Y-120715000I0J-150000D01*
G01*
X158275000Y-121015000D01*
G75*
G02*
X158125000Y-121165000I-150000J0D01*
G01*
X156375000Y-121165000D01*
G75*
G02*
X156225000Y-121015000I0J150000D01*
G01*
G37*
G36*
G01*
X156225000Y-119745000D02*
X156225000Y-119445000D01*
G75*
G02*
X156375000Y-119295000I150000J0D01*
G01*
X158125000Y-119295000D01*
G75*
G02*
X158275000Y-119445000I0J-150000D01*
G01*
X158275000Y-119745000D01*
G75*
G02*
X158125000Y-119895000I-150000J0D01*
G01*
X156375000Y-119895000D01*
G75*
G02*
X156225000Y-119745000I0J150000D01*
G01*
G37*
G36*
G01*
X156225000Y-118475000D02*
X156225000Y-118175000D01*
G75*
G02*
X156375000Y-118025000I150000J0D01*
G01*
X158125000Y-118025000D01*
G75*
G02*
X158275000Y-118175000I0J-150000D01*
G01*
X158275000Y-118475000D01*
G75*
G02*
X158125000Y-118625000I-150000J0D01*
G01*
X156375000Y-118625000D01*
G75*
G02*
X156225000Y-118475000I0J150000D01*
G01*
G37*
G36*
G01*
X156225000Y-117205000D02*
X156225000Y-116905000D01*
G75*
G02*
X156375000Y-116755000I150000J0D01*
G01*
X158125000Y-116755000D01*
G75*
G02*
X158275000Y-116905000I0J-150000D01*
G01*
X158275000Y-117205000D01*
G75*
G02*
X158125000Y-117355000I-150000J0D01*
G01*
X156375000Y-117355000D01*
G75*
G02*
X156225000Y-117205000I0J150000D01*
G01*
G37*
G36*
G01*
X156225000Y-115935000D02*
X156225000Y-115635000D01*
G75*
G02*
X156375000Y-115485000I150000J0D01*
G01*
X158125000Y-115485000D01*
G75*
G02*
X158275000Y-115635000I0J-150000D01*
G01*
X158275000Y-115935000D01*
G75*
G02*
X158125000Y-116085000I-150000J0D01*
G01*
X156375000Y-116085000D01*
G75*
G02*
X156225000Y-115935000I0J150000D01*
G01*
G37*
G36*
G01*
X156225000Y-114665000D02*
X156225000Y-114365000D01*
G75*
G02*
X156375000Y-114215000I150000J0D01*
G01*
X158125000Y-114215000D01*
G75*
G02*
X158275000Y-114365000I0J-150000D01*
G01*
X158275000Y-114665000D01*
G75*
G02*
X158125000Y-114815000I-150000J0D01*
G01*
X156375000Y-114815000D01*
G75*
G02*
X156225000Y-114665000I0J150000D01*
G01*
G37*
G36*
G01*
X156225000Y-113395000D02*
X156225000Y-113095000D01*
G75*
G02*
X156375000Y-112945000I150000J0D01*
G01*
X158125000Y-112945000D01*
G75*
G02*
X158275000Y-113095000I0J-150000D01*
G01*
X158275000Y-113395000D01*
G75*
G02*
X158125000Y-113545000I-150000J0D01*
G01*
X156375000Y-113545000D01*
G75*
G02*
X156225000Y-113395000I0J150000D01*
G01*
G37*
%TD*%
%TO.C,U1*%
G36*
G01*
X146925000Y-98685000D02*
X146925000Y-98385000D01*
G75*
G02*
X147075000Y-98235000I150000J0D01*
G01*
X148825000Y-98235000D01*
G75*
G02*
X148975000Y-98385000I0J-150000D01*
G01*
X148975000Y-98685000D01*
G75*
G02*
X148825000Y-98835000I-150000J0D01*
G01*
X147075000Y-98835000D01*
G75*
G02*
X146925000Y-98685000I0J150000D01*
G01*
G37*
G36*
G01*
X146925000Y-99955000D02*
X146925000Y-99655000D01*
G75*
G02*
X147075000Y-99505000I150000J0D01*
G01*
X148825000Y-99505000D01*
G75*
G02*
X148975000Y-99655000I0J-150000D01*
G01*
X148975000Y-99955000D01*
G75*
G02*
X148825000Y-100105000I-150000J0D01*
G01*
X147075000Y-100105000D01*
G75*
G02*
X146925000Y-99955000I0J150000D01*
G01*
G37*
G36*
G01*
X146925000Y-101225000D02*
X146925000Y-100925000D01*
G75*
G02*
X147075000Y-100775000I150000J0D01*
G01*
X148825000Y-100775000D01*
G75*
G02*
X148975000Y-100925000I0J-150000D01*
G01*
X148975000Y-101225000D01*
G75*
G02*
X148825000Y-101375000I-150000J0D01*
G01*
X147075000Y-101375000D01*
G75*
G02*
X146925000Y-101225000I0J150000D01*
G01*
G37*
G36*
G01*
X146925000Y-102495000D02*
X146925000Y-102195000D01*
G75*
G02*
X147075000Y-102045000I150000J0D01*
G01*
X148825000Y-102045000D01*
G75*
G02*
X148975000Y-102195000I0J-150000D01*
G01*
X148975000Y-102495000D01*
G75*
G02*
X148825000Y-102645000I-150000J0D01*
G01*
X147075000Y-102645000D01*
G75*
G02*
X146925000Y-102495000I0J150000D01*
G01*
G37*
G36*
G01*
X146925000Y-103765000D02*
X146925000Y-103465000D01*
G75*
G02*
X147075000Y-103315000I150000J0D01*
G01*
X148825000Y-103315000D01*
G75*
G02*
X148975000Y-103465000I0J-150000D01*
G01*
X148975000Y-103765000D01*
G75*
G02*
X148825000Y-103915000I-150000J0D01*
G01*
X147075000Y-103915000D01*
G75*
G02*
X146925000Y-103765000I0J150000D01*
G01*
G37*
G36*
G01*
X146925000Y-105035000D02*
X146925000Y-104735000D01*
G75*
G02*
X147075000Y-104585000I150000J0D01*
G01*
X148825000Y-104585000D01*
G75*
G02*
X148975000Y-104735000I0J-150000D01*
G01*
X148975000Y-105035000D01*
G75*
G02*
X148825000Y-105185000I-150000J0D01*
G01*
X147075000Y-105185000D01*
G75*
G02*
X146925000Y-105035000I0J150000D01*
G01*
G37*
G36*
G01*
X146925000Y-106305000D02*
X146925000Y-106005000D01*
G75*
G02*
X147075000Y-105855000I150000J0D01*
G01*
X148825000Y-105855000D01*
G75*
G02*
X148975000Y-106005000I0J-150000D01*
G01*
X148975000Y-106305000D01*
G75*
G02*
X148825000Y-106455000I-150000J0D01*
G01*
X147075000Y-106455000D01*
G75*
G02*
X146925000Y-106305000I0J150000D01*
G01*
G37*
G36*
G01*
X146925000Y-107575000D02*
X146925000Y-107275000D01*
G75*
G02*
X147075000Y-107125000I150000J0D01*
G01*
X148825000Y-107125000D01*
G75*
G02*
X148975000Y-107275000I0J-150000D01*
G01*
X148975000Y-107575000D01*
G75*
G02*
X148825000Y-107725000I-150000J0D01*
G01*
X147075000Y-107725000D01*
G75*
G02*
X146925000Y-107575000I0J150000D01*
G01*
G37*
G36*
G01*
X146925000Y-108845000D02*
X146925000Y-108545000D01*
G75*
G02*
X147075000Y-108395000I150000J0D01*
G01*
X148825000Y-108395000D01*
G75*
G02*
X148975000Y-108545000I0J-150000D01*
G01*
X148975000Y-108845000D01*
G75*
G02*
X148825000Y-108995000I-150000J0D01*
G01*
X147075000Y-108995000D01*
G75*
G02*
X146925000Y-108845000I0J150000D01*
G01*
G37*
G36*
G01*
X146925000Y-110115000D02*
X146925000Y-109815000D01*
G75*
G02*
X147075000Y-109665000I150000J0D01*
G01*
X148825000Y-109665000D01*
G75*
G02*
X148975000Y-109815000I0J-150000D01*
G01*
X148975000Y-110115000D01*
G75*
G02*
X148825000Y-110265000I-150000J0D01*
G01*
X147075000Y-110265000D01*
G75*
G02*
X146925000Y-110115000I0J150000D01*
G01*
G37*
G36*
G01*
X156225000Y-110115000D02*
X156225000Y-109815000D01*
G75*
G02*
X156375000Y-109665000I150000J0D01*
G01*
X158125000Y-109665000D01*
G75*
G02*
X158275000Y-109815000I0J-150000D01*
G01*
X158275000Y-110115000D01*
G75*
G02*
X158125000Y-110265000I-150000J0D01*
G01*
X156375000Y-110265000D01*
G75*
G02*
X156225000Y-110115000I0J150000D01*
G01*
G37*
G36*
G01*
X156225000Y-108845000D02*
X156225000Y-108545000D01*
G75*
G02*
X156375000Y-108395000I150000J0D01*
G01*
X158125000Y-108395000D01*
G75*
G02*
X158275000Y-108545000I0J-150000D01*
G01*
X158275000Y-108845000D01*
G75*
G02*
X158125000Y-108995000I-150000J0D01*
G01*
X156375000Y-108995000D01*
G75*
G02*
X156225000Y-108845000I0J150000D01*
G01*
G37*
G36*
G01*
X156225000Y-107575000D02*
X156225000Y-107275000D01*
G75*
G02*
X156375000Y-107125000I150000J0D01*
G01*
X158125000Y-107125000D01*
G75*
G02*
X158275000Y-107275000I0J-150000D01*
G01*
X158275000Y-107575000D01*
G75*
G02*
X158125000Y-107725000I-150000J0D01*
G01*
X156375000Y-107725000D01*
G75*
G02*
X156225000Y-107575000I0J150000D01*
G01*
G37*
G36*
G01*
X156225000Y-106305000D02*
X156225000Y-106005000D01*
G75*
G02*
X156375000Y-105855000I150000J0D01*
G01*
X158125000Y-105855000D01*
G75*
G02*
X158275000Y-106005000I0J-150000D01*
G01*
X158275000Y-106305000D01*
G75*
G02*
X158125000Y-106455000I-150000J0D01*
G01*
X156375000Y-106455000D01*
G75*
G02*
X156225000Y-106305000I0J150000D01*
G01*
G37*
G36*
G01*
X156225000Y-105035000D02*
X156225000Y-104735000D01*
G75*
G02*
X156375000Y-104585000I150000J0D01*
G01*
X158125000Y-104585000D01*
G75*
G02*
X158275000Y-104735000I0J-150000D01*
G01*
X158275000Y-105035000D01*
G75*
G02*
X158125000Y-105185000I-150000J0D01*
G01*
X156375000Y-105185000D01*
G75*
G02*
X156225000Y-105035000I0J150000D01*
G01*
G37*
G36*
G01*
X156225000Y-103765000D02*
X156225000Y-103465000D01*
G75*
G02*
X156375000Y-103315000I150000J0D01*
G01*
X158125000Y-103315000D01*
G75*
G02*
X158275000Y-103465000I0J-150000D01*
G01*
X158275000Y-103765000D01*
G75*
G02*
X158125000Y-103915000I-150000J0D01*
G01*
X156375000Y-103915000D01*
G75*
G02*
X156225000Y-103765000I0J150000D01*
G01*
G37*
G36*
G01*
X156225000Y-102495000D02*
X156225000Y-102195000D01*
G75*
G02*
X156375000Y-102045000I150000J0D01*
G01*
X158125000Y-102045000D01*
G75*
G02*
X158275000Y-102195000I0J-150000D01*
G01*
X158275000Y-102495000D01*
G75*
G02*
X158125000Y-102645000I-150000J0D01*
G01*
X156375000Y-102645000D01*
G75*
G02*
X156225000Y-102495000I0J150000D01*
G01*
G37*
G36*
G01*
X156225000Y-101225000D02*
X156225000Y-100925000D01*
G75*
G02*
X156375000Y-100775000I150000J0D01*
G01*
X158125000Y-100775000D01*
G75*
G02*
X158275000Y-100925000I0J-150000D01*
G01*
X158275000Y-101225000D01*
G75*
G02*
X158125000Y-101375000I-150000J0D01*
G01*
X156375000Y-101375000D01*
G75*
G02*
X156225000Y-101225000I0J150000D01*
G01*
G37*
G36*
G01*
X156225000Y-99955000D02*
X156225000Y-99655000D01*
G75*
G02*
X156375000Y-99505000I150000J0D01*
G01*
X158125000Y-99505000D01*
G75*
G02*
X158275000Y-99655000I0J-150000D01*
G01*
X158275000Y-99955000D01*
G75*
G02*
X158125000Y-100105000I-150000J0D01*
G01*
X156375000Y-100105000D01*
G75*
G02*
X156225000Y-99955000I0J150000D01*
G01*
G37*
G36*
G01*
X156225000Y-98685000D02*
X156225000Y-98385000D01*
G75*
G02*
X156375000Y-98235000I150000J0D01*
G01*
X158125000Y-98235000D01*
G75*
G02*
X158275000Y-98385000I0J-150000D01*
G01*
X158275000Y-98685000D01*
G75*
G02*
X158125000Y-98835000I-150000J0D01*
G01*
X156375000Y-98835000D01*
G75*
G02*
X156225000Y-98685000I0J150000D01*
G01*
G37*
%TD*%
M02*
