%FSLAX45Y45*%
G04 Gerber Fmt 4.5, Leading zero omitted, Abs format (unit mm)*
G04 Created by KiCad (PCBNEW (5.1.12)-1) date 2023-02-10 19:32:13*
%MOMM*%
%LPD*%
G01*
G04 APERTURE LIST*
%TA.AperFunction,Profile*%
%ADD10C,0.050000*%
%TD*%
%ADD11C,0.200000*%
%ADD12C,0.300000*%
G04 APERTURE END LIST*
D10*
X14342000Y-13253000D02*
X14342000Y-9515000D01*
X16192000Y-13253000D02*
X14342000Y-13253000D01*
X16192000Y-9515000D02*
X16192000Y-13253000D01*
X14342000Y-9515000D02*
X16192000Y-9515000D01*
D11*
X14610000Y-11370000D02*
X14650000Y-11410000D01*
X14650000Y-11370000D02*
X14610000Y-11410000D01*
X14615895Y-11123895D02*
X14655895Y-11163895D01*
X14655895Y-11123895D02*
X14615895Y-11163895D01*
X15010000Y-10980000D02*
X15050000Y-11020000D01*
X15050000Y-10980000D02*
X15010000Y-11020000D01*
X15018000Y-11939000D02*
X15058000Y-11979000D01*
X15058000Y-11939000D02*
X15018000Y-11979000D01*
X15021000Y-12068000D02*
X15061000Y-12108000D01*
X15061000Y-12068000D02*
X15021000Y-12108000D01*
X15028000Y-11811000D02*
X15068000Y-11851000D01*
X15068000Y-11811000D02*
X15028000Y-11851000D01*
X15055000Y-10123000D02*
X15095000Y-10163000D01*
X15095000Y-10123000D02*
X15055000Y-10163000D01*
X15090000Y-9843000D02*
X15130000Y-9883000D01*
X15130000Y-9843000D02*
X15090000Y-9883000D01*
X15138000Y-11655000D02*
X15178000Y-11695000D01*
X15178000Y-11655000D02*
X15138000Y-11695000D01*
X15207402Y-11077403D02*
X15247402Y-11117403D01*
X15247402Y-11077403D02*
X15207402Y-11117403D01*
X15216000Y-9839000D02*
X15256000Y-9879000D01*
X15256000Y-9839000D02*
X15216000Y-9879000D01*
X15220000Y-10760000D02*
X15260000Y-10800000D01*
X15260000Y-10760000D02*
X15220000Y-10800000D01*
X15236000Y-11558000D02*
X15276000Y-11598000D01*
X15276000Y-11558000D02*
X15236000Y-11598000D01*
X15300000Y-11157500D02*
X15340000Y-11197500D01*
X15340000Y-11157500D02*
X15300000Y-11197500D01*
X15383000Y-10333000D02*
X15423000Y-10373000D01*
X15423000Y-10333000D02*
X15383000Y-10373000D01*
X15428000Y-9815000D02*
X15468000Y-9855000D01*
X15468000Y-9815000D02*
X15428000Y-9855000D01*
X15435501Y-11582000D02*
X15475501Y-11622000D01*
X15475501Y-11582000D02*
X15435501Y-11622000D01*
X15440000Y-11687000D02*
X15480000Y-11727000D01*
X15480000Y-11687000D02*
X15440000Y-11727000D01*
X15453000Y-11431000D02*
X15493000Y-11471000D01*
X15493000Y-11431000D02*
X15453000Y-11471000D01*
X15457000Y-10264000D02*
X15497000Y-10304000D01*
X15497000Y-10264000D02*
X15457000Y-10304000D01*
X15480000Y-11302500D02*
X15520000Y-11342500D01*
X15520000Y-11302500D02*
X15480000Y-11342500D01*
X15483000Y-9626000D02*
X15523000Y-9666000D01*
X15523000Y-9626000D02*
X15483000Y-9666000D01*
X15495000Y-9965000D02*
X15535000Y-10005000D01*
X15535000Y-9965000D02*
X15495000Y-10005000D01*
X15499000Y-10800000D02*
X15539000Y-10840000D01*
X15539000Y-10800000D02*
X15499000Y-10840000D01*
X15521000Y-11781000D02*
X15561000Y-11821000D01*
X15561000Y-11781000D02*
X15521000Y-11821000D01*
X15855000Y-11073000D02*
X15895000Y-11113000D01*
X15895000Y-11073000D02*
X15855000Y-11113000D01*
X15894000Y-11383000D02*
X15934000Y-11423000D01*
X15934000Y-11383000D02*
X15894000Y-11423000D01*
X14545000Y-9750000D02*
G75*
G03*
X14545000Y-9750000I-45000J0D01*
G01*
X14545000Y-10004000D02*
G75*
G03*
X14545000Y-10004000I-45000J0D01*
G01*
X14545000Y-10258000D02*
G75*
G03*
X14545000Y-10258000I-45000J0D01*
G01*
X14545000Y-10512000D02*
G75*
G03*
X14545000Y-10512000I-45000J0D01*
G01*
X14545000Y-10766000D02*
G75*
G03*
X14545000Y-10766000I-45000J0D01*
G01*
X14545000Y-11020000D02*
G75*
G03*
X14545000Y-11020000I-45000J0D01*
G01*
X14545000Y-11274000D02*
G75*
G03*
X14545000Y-11274000I-45000J0D01*
G01*
X14545000Y-11528000D02*
G75*
G03*
X14545000Y-11528000I-45000J0D01*
G01*
X14545000Y-11782000D02*
G75*
G03*
X14545000Y-11782000I-45000J0D01*
G01*
X14545000Y-12036000D02*
G75*
G03*
X14545000Y-12036000I-45000J0D01*
G01*
X14545000Y-12290000D02*
G75*
G03*
X14545000Y-12290000I-45000J0D01*
G01*
X14545000Y-12544000D02*
G75*
G03*
X14545000Y-12544000I-45000J0D01*
G01*
X14545000Y-12798000D02*
G75*
G03*
X14545000Y-12798000I-45000J0D01*
G01*
X14545000Y-13052000D02*
G75*
G03*
X14545000Y-13052000I-45000J0D01*
G01*
X16069000Y-9750000D02*
G75*
G03*
X16069000Y-9750000I-45000J0D01*
G01*
X16069000Y-10004000D02*
G75*
G03*
X16069000Y-10004000I-45000J0D01*
G01*
X16069000Y-10258000D02*
G75*
G03*
X16069000Y-10258000I-45000J0D01*
G01*
X16069000Y-10512000D02*
G75*
G03*
X16069000Y-10512000I-45000J0D01*
G01*
X16069000Y-10766000D02*
G75*
G03*
X16069000Y-10766000I-45000J0D01*
G01*
X16069000Y-11020000D02*
G75*
G03*
X16069000Y-11020000I-45000J0D01*
G01*
X16069000Y-11274000D02*
G75*
G03*
X16069000Y-11274000I-45000J0D01*
G01*
X16069000Y-11528000D02*
G75*
G03*
X16069000Y-11528000I-45000J0D01*
G01*
X16069000Y-11782000D02*
G75*
G03*
X16069000Y-11782000I-45000J0D01*
G01*
X16069000Y-12036000D02*
G75*
G03*
X16069000Y-12036000I-45000J0D01*
G01*
X16069000Y-12290000D02*
G75*
G03*
X16069000Y-12290000I-45000J0D01*
G01*
X16069000Y-12544000D02*
G75*
G03*
X16069000Y-12544000I-45000J0D01*
G01*
X16069000Y-12798000D02*
G75*
G03*
X16069000Y-12798000I-45000J0D01*
G01*
X16069000Y-13052000D02*
G75*
G03*
X16069000Y-13052000I-45000J0D01*
G01*
D12*
X14625928Y-13721214D02*
X14625928Y-13421214D01*
X14697357Y-13421214D01*
X14740214Y-13435500D01*
X14768786Y-13464071D01*
X14783071Y-13492643D01*
X14797357Y-13549786D01*
X14797357Y-13592643D01*
X14783071Y-13649786D01*
X14768786Y-13678357D01*
X14740214Y-13706929D01*
X14697357Y-13721214D01*
X14625928Y-13721214D01*
X14925928Y-13721214D02*
X14925928Y-13521214D01*
X14925928Y-13578357D02*
X14940214Y-13549786D01*
X14954500Y-13535500D01*
X14983071Y-13521214D01*
X15011643Y-13521214D01*
X15111643Y-13721214D02*
X15111643Y-13521214D01*
X15111643Y-13421214D02*
X15097357Y-13435500D01*
X15111643Y-13449786D01*
X15125928Y-13435500D01*
X15111643Y-13421214D01*
X15111643Y-13449786D01*
X15297357Y-13721214D02*
X15268786Y-13706929D01*
X15254500Y-13678357D01*
X15254500Y-13421214D01*
X15454500Y-13721214D02*
X15425928Y-13706929D01*
X15411643Y-13678357D01*
X15411643Y-13421214D01*
X15797357Y-13721214D02*
X15797357Y-13421214D01*
X15897357Y-13635500D01*
X15997357Y-13421214D01*
X15997357Y-13721214D01*
X16268786Y-13721214D02*
X16268786Y-13564071D01*
X16254500Y-13535500D01*
X16225928Y-13521214D01*
X16168786Y-13521214D01*
X16140214Y-13535500D01*
X16268786Y-13706929D02*
X16240214Y-13721214D01*
X16168786Y-13721214D01*
X16140214Y-13706929D01*
X16125928Y-13678357D01*
X16125928Y-13649786D01*
X16140214Y-13621214D01*
X16168786Y-13606929D01*
X16240214Y-13606929D01*
X16268786Y-13592643D01*
X16411643Y-13521214D02*
X16411643Y-13821214D01*
X16411643Y-13535500D02*
X16440214Y-13521214D01*
X16497357Y-13521214D01*
X16525928Y-13535500D01*
X16540214Y-13549786D01*
X16554500Y-13578357D01*
X16554500Y-13664071D01*
X16540214Y-13692643D01*
X16525928Y-13706929D01*
X16497357Y-13721214D01*
X16440214Y-13721214D01*
X16411643Y-13706929D01*
X16683071Y-13692643D02*
X16697357Y-13706929D01*
X16683071Y-13721214D01*
X16668786Y-13706929D01*
X16683071Y-13692643D01*
X16683071Y-13721214D01*
X16683071Y-13535500D02*
X16697357Y-13549786D01*
X16683071Y-13564071D01*
X16668786Y-13549786D01*
X16683071Y-13535500D01*
X16683071Y-13564071D01*
X14299500Y-14195500D02*
X14339500Y-14235500D01*
X14339500Y-14195500D02*
X14299500Y-14235500D01*
X14683071Y-14051214D02*
X14711643Y-14051214D01*
X14740214Y-14065500D01*
X14754500Y-14079786D01*
X14768786Y-14108357D01*
X14783071Y-14165500D01*
X14783071Y-14236929D01*
X14768786Y-14294071D01*
X14754500Y-14322643D01*
X14740214Y-14336929D01*
X14711643Y-14351214D01*
X14683071Y-14351214D01*
X14654500Y-14336929D01*
X14640214Y-14322643D01*
X14625928Y-14294071D01*
X14611643Y-14236929D01*
X14611643Y-14165500D01*
X14625928Y-14108357D01*
X14640214Y-14079786D01*
X14654500Y-14065500D01*
X14683071Y-14051214D01*
X14911643Y-14322643D02*
X14925928Y-14336929D01*
X14911643Y-14351214D01*
X14897357Y-14336929D01*
X14911643Y-14322643D01*
X14911643Y-14351214D01*
X15183071Y-14151214D02*
X15183071Y-14351214D01*
X15111643Y-14036929D02*
X15040214Y-14251214D01*
X15225928Y-14251214D01*
X15397357Y-14051214D02*
X15425928Y-14051214D01*
X15454500Y-14065500D01*
X15468786Y-14079786D01*
X15483071Y-14108357D01*
X15497357Y-14165500D01*
X15497357Y-14236929D01*
X15483071Y-14294071D01*
X15468786Y-14322643D01*
X15454500Y-14336929D01*
X15425928Y-14351214D01*
X15397357Y-14351214D01*
X15368786Y-14336929D01*
X15354500Y-14322643D01*
X15340214Y-14294071D01*
X15325928Y-14236929D01*
X15325928Y-14165500D01*
X15340214Y-14108357D01*
X15354500Y-14079786D01*
X15368786Y-14065500D01*
X15397357Y-14051214D01*
X15683071Y-14051214D02*
X15711643Y-14051214D01*
X15740214Y-14065500D01*
X15754500Y-14079786D01*
X15768786Y-14108357D01*
X15783071Y-14165500D01*
X15783071Y-14236929D01*
X15768786Y-14294071D01*
X15754500Y-14322643D01*
X15740214Y-14336929D01*
X15711643Y-14351214D01*
X15683071Y-14351214D01*
X15654500Y-14336929D01*
X15640214Y-14322643D01*
X15625928Y-14294071D01*
X15611643Y-14236929D01*
X15611643Y-14165500D01*
X15625928Y-14108357D01*
X15640214Y-14079786D01*
X15654500Y-14065500D01*
X15683071Y-14051214D01*
X15911643Y-14351214D02*
X15911643Y-14151214D01*
X15911643Y-14179786D02*
X15925928Y-14165500D01*
X15954500Y-14151214D01*
X15997357Y-14151214D01*
X16025928Y-14165500D01*
X16040214Y-14194071D01*
X16040214Y-14351214D01*
X16040214Y-14194071D02*
X16054500Y-14165500D01*
X16083071Y-14151214D01*
X16125928Y-14151214D01*
X16154500Y-14165500D01*
X16168786Y-14194071D01*
X16168786Y-14351214D01*
X16311643Y-14351214D02*
X16311643Y-14151214D01*
X16311643Y-14179786D02*
X16325928Y-14165500D01*
X16354500Y-14151214D01*
X16397357Y-14151214D01*
X16425928Y-14165500D01*
X16440214Y-14194071D01*
X16440214Y-14351214D01*
X16440214Y-14194071D02*
X16454500Y-14165500D01*
X16483071Y-14151214D01*
X16525928Y-14151214D01*
X16554500Y-14165500D01*
X16568786Y-14194071D01*
X16568786Y-14351214D01*
X17154500Y-14036929D02*
X16897357Y-14422643D01*
X17540214Y-14051214D02*
X17568786Y-14051214D01*
X17597357Y-14065500D01*
X17611643Y-14079786D01*
X17625928Y-14108357D01*
X17640214Y-14165500D01*
X17640214Y-14236929D01*
X17625928Y-14294071D01*
X17611643Y-14322643D01*
X17597357Y-14336929D01*
X17568786Y-14351214D01*
X17540214Y-14351214D01*
X17511643Y-14336929D01*
X17497357Y-14322643D01*
X17483071Y-14294071D01*
X17468786Y-14236929D01*
X17468786Y-14165500D01*
X17483071Y-14108357D01*
X17497357Y-14079786D01*
X17511643Y-14065500D01*
X17540214Y-14051214D01*
X17768786Y-14322643D02*
X17783071Y-14336929D01*
X17768786Y-14351214D01*
X17754500Y-14336929D01*
X17768786Y-14322643D01*
X17768786Y-14351214D01*
X17968786Y-14051214D02*
X17997357Y-14051214D01*
X18025928Y-14065500D01*
X18040214Y-14079786D01*
X18054500Y-14108357D01*
X18068786Y-14165500D01*
X18068786Y-14236929D01*
X18054500Y-14294071D01*
X18040214Y-14322643D01*
X18025928Y-14336929D01*
X17997357Y-14351214D01*
X17968786Y-14351214D01*
X17940214Y-14336929D01*
X17925928Y-14322643D01*
X17911643Y-14294071D01*
X17897357Y-14236929D01*
X17897357Y-14165500D01*
X17911643Y-14108357D01*
X17925928Y-14079786D01*
X17940214Y-14065500D01*
X17968786Y-14051214D01*
X18354500Y-14351214D02*
X18183071Y-14351214D01*
X18268786Y-14351214D02*
X18268786Y-14051214D01*
X18240214Y-14094071D01*
X18211643Y-14122643D01*
X18183071Y-14136929D01*
X18625928Y-14051214D02*
X18483071Y-14051214D01*
X18468786Y-14194071D01*
X18483071Y-14179786D01*
X18511643Y-14165500D01*
X18583071Y-14165500D01*
X18611643Y-14179786D01*
X18625928Y-14194071D01*
X18640214Y-14222643D01*
X18640214Y-14294071D01*
X18625928Y-14322643D01*
X18611643Y-14336929D01*
X18583071Y-14351214D01*
X18511643Y-14351214D01*
X18483071Y-14336929D01*
X18468786Y-14322643D01*
X18740214Y-14051214D02*
X18940214Y-14051214D01*
X18811643Y-14351214D01*
X19040214Y-14051214D02*
X19040214Y-14108357D01*
X19154500Y-14051214D02*
X19154500Y-14108357D01*
X19597357Y-14465500D02*
X19583071Y-14451214D01*
X19554500Y-14408357D01*
X19540214Y-14379786D01*
X19525928Y-14336929D01*
X19511643Y-14265500D01*
X19511643Y-14208357D01*
X19525928Y-14136929D01*
X19540214Y-14094071D01*
X19554500Y-14065500D01*
X19583071Y-14022643D01*
X19597357Y-14008357D01*
X19697357Y-14079786D02*
X19711643Y-14065500D01*
X19740214Y-14051214D01*
X19811643Y-14051214D01*
X19840214Y-14065500D01*
X19854500Y-14079786D01*
X19868786Y-14108357D01*
X19868786Y-14136929D01*
X19854500Y-14179786D01*
X19683071Y-14351214D01*
X19868786Y-14351214D01*
X19968786Y-14051214D02*
X20168786Y-14051214D01*
X20040214Y-14351214D01*
X20511643Y-14351214D02*
X20511643Y-14051214D01*
X20640214Y-14351214D02*
X20640214Y-14194071D01*
X20625928Y-14165500D01*
X20597357Y-14151214D01*
X20554500Y-14151214D01*
X20525928Y-14165500D01*
X20511643Y-14179786D01*
X20825928Y-14351214D02*
X20797357Y-14336929D01*
X20783071Y-14322643D01*
X20768786Y-14294071D01*
X20768786Y-14208357D01*
X20783071Y-14179786D01*
X20797357Y-14165500D01*
X20825928Y-14151214D01*
X20868786Y-14151214D01*
X20897357Y-14165500D01*
X20911643Y-14179786D01*
X20925928Y-14208357D01*
X20925928Y-14294071D01*
X20911643Y-14322643D01*
X20897357Y-14336929D01*
X20868786Y-14351214D01*
X20825928Y-14351214D01*
X21097357Y-14351214D02*
X21068786Y-14336929D01*
X21054500Y-14308357D01*
X21054500Y-14051214D01*
X21325928Y-14336929D02*
X21297357Y-14351214D01*
X21240214Y-14351214D01*
X21211643Y-14336929D01*
X21197357Y-14308357D01*
X21197357Y-14194071D01*
X21211643Y-14165500D01*
X21240214Y-14151214D01*
X21297357Y-14151214D01*
X21325928Y-14165500D01*
X21340214Y-14194071D01*
X21340214Y-14222643D01*
X21197357Y-14251214D01*
X21454500Y-14336929D02*
X21483071Y-14351214D01*
X21540214Y-14351214D01*
X21568786Y-14336929D01*
X21583071Y-14308357D01*
X21583071Y-14294071D01*
X21568786Y-14265500D01*
X21540214Y-14251214D01*
X21497357Y-14251214D01*
X21468786Y-14236929D01*
X21454500Y-14208357D01*
X21454500Y-14194071D01*
X21468786Y-14165500D01*
X21497357Y-14151214D01*
X21540214Y-14151214D01*
X21568786Y-14165500D01*
X21683071Y-14465500D02*
X21697357Y-14451214D01*
X21725928Y-14408357D01*
X21740214Y-14379786D01*
X21754500Y-14336929D01*
X21768786Y-14265500D01*
X21768786Y-14208357D01*
X21754500Y-14136929D01*
X21740214Y-14094071D01*
X21725928Y-14065500D01*
X21697357Y-14022643D01*
X21683071Y-14008357D01*
X14339500Y-14611500D02*
G75*
G03*
X14339500Y-14611500I-45000J0D01*
G01*
X14683071Y-14447214D02*
X14711643Y-14447214D01*
X14740214Y-14461500D01*
X14754500Y-14475786D01*
X14768786Y-14504357D01*
X14783071Y-14561500D01*
X14783071Y-14632929D01*
X14768786Y-14690071D01*
X14754500Y-14718643D01*
X14740214Y-14732929D01*
X14711643Y-14747214D01*
X14683071Y-14747214D01*
X14654500Y-14732929D01*
X14640214Y-14718643D01*
X14625928Y-14690071D01*
X14611643Y-14632929D01*
X14611643Y-14561500D01*
X14625928Y-14504357D01*
X14640214Y-14475786D01*
X14654500Y-14461500D01*
X14683071Y-14447214D01*
X14911643Y-14718643D02*
X14925928Y-14732929D01*
X14911643Y-14747214D01*
X14897357Y-14732929D01*
X14911643Y-14718643D01*
X14911643Y-14747214D01*
X15068786Y-14747214D02*
X15125928Y-14747214D01*
X15154500Y-14732929D01*
X15168786Y-14718643D01*
X15197357Y-14675786D01*
X15211643Y-14618643D01*
X15211643Y-14504357D01*
X15197357Y-14475786D01*
X15183071Y-14461500D01*
X15154500Y-14447214D01*
X15097357Y-14447214D01*
X15068786Y-14461500D01*
X15054500Y-14475786D01*
X15040214Y-14504357D01*
X15040214Y-14575786D01*
X15054500Y-14604357D01*
X15068786Y-14618643D01*
X15097357Y-14632929D01*
X15154500Y-14632929D01*
X15183071Y-14618643D01*
X15197357Y-14604357D01*
X15211643Y-14575786D01*
X15397357Y-14447214D02*
X15425928Y-14447214D01*
X15454500Y-14461500D01*
X15468786Y-14475786D01*
X15483071Y-14504357D01*
X15497357Y-14561500D01*
X15497357Y-14632929D01*
X15483071Y-14690071D01*
X15468786Y-14718643D01*
X15454500Y-14732929D01*
X15425928Y-14747214D01*
X15397357Y-14747214D01*
X15368786Y-14732929D01*
X15354500Y-14718643D01*
X15340214Y-14690071D01*
X15325928Y-14632929D01*
X15325928Y-14561500D01*
X15340214Y-14504357D01*
X15354500Y-14475786D01*
X15368786Y-14461500D01*
X15397357Y-14447214D01*
X15683071Y-14447214D02*
X15711643Y-14447214D01*
X15740214Y-14461500D01*
X15754500Y-14475786D01*
X15768786Y-14504357D01*
X15783071Y-14561500D01*
X15783071Y-14632929D01*
X15768786Y-14690071D01*
X15754500Y-14718643D01*
X15740214Y-14732929D01*
X15711643Y-14747214D01*
X15683071Y-14747214D01*
X15654500Y-14732929D01*
X15640214Y-14718643D01*
X15625928Y-14690071D01*
X15611643Y-14632929D01*
X15611643Y-14561500D01*
X15625928Y-14504357D01*
X15640214Y-14475786D01*
X15654500Y-14461500D01*
X15683071Y-14447214D01*
X15911643Y-14747214D02*
X15911643Y-14547214D01*
X15911643Y-14575786D02*
X15925928Y-14561500D01*
X15954500Y-14547214D01*
X15997357Y-14547214D01*
X16025928Y-14561500D01*
X16040214Y-14590071D01*
X16040214Y-14747214D01*
X16040214Y-14590071D02*
X16054500Y-14561500D01*
X16083071Y-14547214D01*
X16125928Y-14547214D01*
X16154500Y-14561500D01*
X16168786Y-14590071D01*
X16168786Y-14747214D01*
X16311643Y-14747214D02*
X16311643Y-14547214D01*
X16311643Y-14575786D02*
X16325928Y-14561500D01*
X16354500Y-14547214D01*
X16397357Y-14547214D01*
X16425928Y-14561500D01*
X16440214Y-14590071D01*
X16440214Y-14747214D01*
X16440214Y-14590071D02*
X16454500Y-14561500D01*
X16483071Y-14547214D01*
X16525928Y-14547214D01*
X16554500Y-14561500D01*
X16568786Y-14590071D01*
X16568786Y-14747214D01*
X17154500Y-14432929D02*
X16897357Y-14818643D01*
X17540214Y-14447214D02*
X17568786Y-14447214D01*
X17597357Y-14461500D01*
X17611643Y-14475786D01*
X17625928Y-14504357D01*
X17640214Y-14561500D01*
X17640214Y-14632929D01*
X17625928Y-14690071D01*
X17611643Y-14718643D01*
X17597357Y-14732929D01*
X17568786Y-14747214D01*
X17540214Y-14747214D01*
X17511643Y-14732929D01*
X17497357Y-14718643D01*
X17483071Y-14690071D01*
X17468786Y-14632929D01*
X17468786Y-14561500D01*
X17483071Y-14504357D01*
X17497357Y-14475786D01*
X17511643Y-14461500D01*
X17540214Y-14447214D01*
X17768786Y-14718643D02*
X17783071Y-14732929D01*
X17768786Y-14747214D01*
X17754500Y-14732929D01*
X17768786Y-14718643D01*
X17768786Y-14747214D01*
X17968786Y-14447214D02*
X17997357Y-14447214D01*
X18025928Y-14461500D01*
X18040214Y-14475786D01*
X18054500Y-14504357D01*
X18068786Y-14561500D01*
X18068786Y-14632929D01*
X18054500Y-14690071D01*
X18040214Y-14718643D01*
X18025928Y-14732929D01*
X17997357Y-14747214D01*
X17968786Y-14747214D01*
X17940214Y-14732929D01*
X17925928Y-14718643D01*
X17911643Y-14690071D01*
X17897357Y-14632929D01*
X17897357Y-14561500D01*
X17911643Y-14504357D01*
X17925928Y-14475786D01*
X17940214Y-14461500D01*
X17968786Y-14447214D01*
X18168786Y-14447214D02*
X18354500Y-14447214D01*
X18254500Y-14561500D01*
X18297357Y-14561500D01*
X18325928Y-14575786D01*
X18340214Y-14590071D01*
X18354500Y-14618643D01*
X18354500Y-14690071D01*
X18340214Y-14718643D01*
X18325928Y-14732929D01*
X18297357Y-14747214D01*
X18211643Y-14747214D01*
X18183071Y-14732929D01*
X18168786Y-14718643D01*
X18625928Y-14447214D02*
X18483071Y-14447214D01*
X18468786Y-14590071D01*
X18483071Y-14575786D01*
X18511643Y-14561500D01*
X18583071Y-14561500D01*
X18611643Y-14575786D01*
X18625928Y-14590071D01*
X18640214Y-14618643D01*
X18640214Y-14690071D01*
X18625928Y-14718643D01*
X18611643Y-14732929D01*
X18583071Y-14747214D01*
X18511643Y-14747214D01*
X18483071Y-14732929D01*
X18468786Y-14718643D01*
X18897357Y-14547214D02*
X18897357Y-14747214D01*
X18825928Y-14432929D02*
X18754500Y-14647214D01*
X18940214Y-14647214D01*
X19040214Y-14447214D02*
X19040214Y-14504357D01*
X19154500Y-14447214D02*
X19154500Y-14504357D01*
X19597357Y-14861500D02*
X19583071Y-14847214D01*
X19554500Y-14804357D01*
X19540214Y-14775786D01*
X19525928Y-14732929D01*
X19511643Y-14661500D01*
X19511643Y-14604357D01*
X19525928Y-14532929D01*
X19540214Y-14490071D01*
X19554500Y-14461500D01*
X19583071Y-14418643D01*
X19597357Y-14404357D01*
X19697357Y-14475786D02*
X19711643Y-14461500D01*
X19740214Y-14447214D01*
X19811643Y-14447214D01*
X19840214Y-14461500D01*
X19854500Y-14475786D01*
X19868786Y-14504357D01*
X19868786Y-14532929D01*
X19854500Y-14575786D01*
X19683071Y-14747214D01*
X19868786Y-14747214D01*
X20040214Y-14575786D02*
X20011643Y-14561500D01*
X19997357Y-14547214D01*
X19983071Y-14518643D01*
X19983071Y-14504357D01*
X19997357Y-14475786D01*
X20011643Y-14461500D01*
X20040214Y-14447214D01*
X20097357Y-14447214D01*
X20125928Y-14461500D01*
X20140214Y-14475786D01*
X20154500Y-14504357D01*
X20154500Y-14518643D01*
X20140214Y-14547214D01*
X20125928Y-14561500D01*
X20097357Y-14575786D01*
X20040214Y-14575786D01*
X20011643Y-14590071D01*
X19997357Y-14604357D01*
X19983071Y-14632929D01*
X19983071Y-14690071D01*
X19997357Y-14718643D01*
X20011643Y-14732929D01*
X20040214Y-14747214D01*
X20097357Y-14747214D01*
X20125928Y-14732929D01*
X20140214Y-14718643D01*
X20154500Y-14690071D01*
X20154500Y-14632929D01*
X20140214Y-14604357D01*
X20125928Y-14590071D01*
X20097357Y-14575786D01*
X20511643Y-14747214D02*
X20511643Y-14447214D01*
X20640214Y-14747214D02*
X20640214Y-14590071D01*
X20625928Y-14561500D01*
X20597357Y-14547214D01*
X20554500Y-14547214D01*
X20525928Y-14561500D01*
X20511643Y-14575786D01*
X20825928Y-14747214D02*
X20797357Y-14732929D01*
X20783071Y-14718643D01*
X20768786Y-14690071D01*
X20768786Y-14604357D01*
X20783071Y-14575786D01*
X20797357Y-14561500D01*
X20825928Y-14547214D01*
X20868786Y-14547214D01*
X20897357Y-14561500D01*
X20911643Y-14575786D01*
X20925928Y-14604357D01*
X20925928Y-14690071D01*
X20911643Y-14718643D01*
X20897357Y-14732929D01*
X20868786Y-14747214D01*
X20825928Y-14747214D01*
X21097357Y-14747214D02*
X21068786Y-14732929D01*
X21054500Y-14704357D01*
X21054500Y-14447214D01*
X21325928Y-14732929D02*
X21297357Y-14747214D01*
X21240214Y-14747214D01*
X21211643Y-14732929D01*
X21197357Y-14704357D01*
X21197357Y-14590071D01*
X21211643Y-14561500D01*
X21240214Y-14547214D01*
X21297357Y-14547214D01*
X21325928Y-14561500D01*
X21340214Y-14590071D01*
X21340214Y-14618643D01*
X21197357Y-14647214D01*
X21454500Y-14732929D02*
X21483071Y-14747214D01*
X21540214Y-14747214D01*
X21568786Y-14732929D01*
X21583071Y-14704357D01*
X21583071Y-14690071D01*
X21568786Y-14661500D01*
X21540214Y-14647214D01*
X21497357Y-14647214D01*
X21468786Y-14632929D01*
X21454500Y-14604357D01*
X21454500Y-14590071D01*
X21468786Y-14561500D01*
X21497357Y-14547214D01*
X21540214Y-14547214D01*
X21568786Y-14561500D01*
X21683071Y-14861500D02*
X21697357Y-14847214D01*
X21725928Y-14804357D01*
X21740214Y-14775786D01*
X21754500Y-14732929D01*
X21768786Y-14661500D01*
X21768786Y-14604357D01*
X21754500Y-14532929D01*
X21740214Y-14490071D01*
X21725928Y-14461500D01*
X21697357Y-14418643D01*
X21683071Y-14404357D01*
M02*
