M48
; DRILL file {KiCad (5.1.12)-1} date 02/10/23 19:32:11
; FORMAT={-:-/ absolute / metric / decimal}
; #@! TF.CreationDate,2023-02-10T19:32:11+01:00
; #@! TF.GenerationSoftware,Kicad,Pcbnew,(5.1.12)-1
; #@! TF.FileFunction,Plated,1,2,PTH
FMAT,2
METRIC
T1C0.400
T2C0.900
%
G90
G05
T1
X146.3Y-113.9
X146.359Y-111.439
X150.3Y-110.0
X150.38Y-119.59
X150.41Y-120.88
X150.48Y-118.31
X150.75Y-101.43
X151.1Y-98.63
X151.58Y-116.75
X152.274Y-110.974
X152.36Y-98.59
X152.4Y-107.8
X152.56Y-115.78
X153.2Y-111.775
X154.03Y-103.53
X154.48Y-98.35
X154.555Y-116.02
X154.6Y-117.07
X154.73Y-114.51
X154.77Y-102.84
X155.0Y-113.225
X155.03Y-96.46
X155.15Y-99.85
X155.19Y-108.2
X155.41Y-118.01
X158.75Y-110.93
X159.14Y-114.03
T2
X145.0Y-97.5
X145.0Y-100.04
X145.0Y-102.58
X145.0Y-105.12
X145.0Y-107.66
X145.0Y-110.2
X145.0Y-112.74
X145.0Y-115.28
X145.0Y-117.82
X145.0Y-120.36
X145.0Y-122.9
X145.0Y-125.44
X145.0Y-127.98
X145.0Y-130.52
X160.24Y-97.5
X160.24Y-100.04
X160.24Y-102.58
X160.24Y-105.12
X160.24Y-107.66
X160.24Y-110.2
X160.24Y-112.74
X160.24Y-115.28
X160.24Y-117.82
X160.24Y-120.36
X160.24Y-122.9
X160.24Y-125.44
X160.24Y-127.98
X160.24Y-130.52
T0
M30
